<svg width="1920" height="1080" viewBox="0 0 1920 1080" fill="none" xmlns="http://www.w3.org/2000/svg">
<path d="M42.0008 55.0001H57.1871L50.5844 61.5746C50.2076 61.9509 49.996 62.4613 49.996 62.9935C49.996 63.5256 50.2076 64.036 50.5844 64.4123C50.9612 64.7886 51.4722 65 52.005 65C52.5378 65 53.0488 64.7886 53.4256 64.4123L63.4297 54.4205C63.6119 54.2305 63.7547 54.0064 63.8499 53.7611C64.05 53.2746 64.05 52.7289 63.8499 52.2423C63.7547 51.997 63.6119 51.7729 63.4297 51.5829L53.4256 41.5911C53.2396 41.4038 53.0183 41.2551 52.7745 41.1537C52.5306 41.0522 52.2691 41 52.005 41C51.7409 41 51.4793 41.0522 51.2355 41.1537C50.9917 41.2551 50.7704 41.4038 50.5844 41.5911C50.3969 41.7769 50.248 41.9979 50.1464 42.2414C50.0449 42.4849 49.9926 42.7461 49.9926 43.0099C49.9926 43.2737 50.0449 43.5349 50.1464 43.7785C50.248 44.022 50.3969 44.243 50.5844 44.4288L57.1871 51.0034H42.0008C41.4702 51.0034 40.9613 51.2139 40.586 51.5887C40.2108 51.9634 40 52.4717 40 53.0017C40 53.5317 40.2108 54.04 40.586 54.4148C40.9613 54.7895 41.4702 55.0001 42.0008 55.0001Z" fill="white"/>
<path fill-rule="evenodd" clip-rule="evenodd" d="M334.088 50.129H325.122C325.122 51.0614 325.122 52.9262 325.116 53.8586H330.312C330.113 54.7909 329.407 56.0963 328.409 56.7536C328.409 56.7527 328.408 56.7592 328.406 56.7583C327.08 57.6338 325.33 57.8324 324.031 57.5713C321.994 57.1667 320.382 55.6898 319.728 53.8138C319.732 53.811 319.735 53.7849 319.737 53.783C319.328 52.6194 319.328 51.0614 319.737 50.129H319.736C320.264 48.4153 321.924 46.8517 323.964 46.4237C325.604 46.0759 327.455 46.4526 328.816 47.7262C328.997 47.5491 331.321 45.2797 331.496 45.0951C326.845 40.8835 319.399 42.365 316.613 47.8036H316.612C316.612 47.8036 316.613 47.8036 316.607 47.8139V47.8139C315.229 50.4852 315.286 53.6329 316.617 56.1765C316.613 56.1793 316.61 56.1811 316.607 56.1839C317.813 58.5242 320.008 60.3191 322.652 61.0025C325.461 61.7391 329.036 61.2356 331.431 59.0697C331.432 59.0706 331.433 59.0715 331.434 59.0725C333.463 57.245 334.726 54.1317 334.088 50.129" fill="white"/>
<path fill-rule="evenodd" clip-rule="evenodd" d="M261.787 61.323H257.687V53.8553C257.687 51.8068 256.818 50.664 255.261 50.664C253.566 50.664 252.561 51.8548 252.561 53.8553V61.323H248.46V47.4525H252.561V49.0124C252.561 49.0124 253.847 46.6629 256.747 46.6629C259.647 46.6629 261.787 48.5045 261.787 52.3157C261.787 56.1258 261.787 61.323 261.787 61.323V61.323ZM242.463 43.9962C241.359 43.9962 240.464 43.1009 240.464 41.9967C240.464 40.8934 241.359 39.998 242.463 39.998C243.567 39.998 244.462 40.8934 244.462 41.9967C244.463 43.1009 243.567 43.9962 242.463 43.9962V43.9962ZM240.464 61.3213H244.462V47.994H240.464V61.3213Z" fill="white"/>
<path fill-rule="evenodd" clip-rule="evenodd" d="M173.37 61.3203C181.416 61.3203 185.818 54.1412 185.818 47.9161C185.818 47.7117 185.818 47.5085 185.805 47.3065C186.661 46.6406 187.4 45.8139 187.987 44.8679C187.19 45.249 186.342 45.4993 185.475 45.6095C186.388 45.0206 187.071 44.0952 187.399 43.0033C186.539 43.5521 185.6 43.939 184.62 44.1468C182.963 42.2502 180.192 42.1583 178.43 43.9425C177.295 45.0929 176.812 46.8082 177.164 48.4442C173.647 48.2537 170.37 46.4649 168.148 43.5223C166.987 45.675 167.58 48.4282 169.503 49.8105C168.807 49.7887 168.125 49.5866 167.517 49.2215V49.2812C167.518 51.5235 168.986 53.4546 171.026 53.8989C170.382 54.0884 169.706 54.1159 169.052 53.9793C169.624 55.8989 171.267 57.2135 173.139 57.2514C171.589 58.5626 169.676 59.2744 167.705 59.2721C167.358 59.271 167.01 59.2491 166.664 59.2044C168.665 60.5867 170.992 61.3203 173.37 61.3169" fill="white"/>
<path fill-rule="evenodd" clip-rule="evenodd" d="M400.667 61.321V52.3251H403.58L404.056 48.3269H400.667V46.3798C400.667 45.3503 400.695 44.3287 402.229 44.3287H403.784V41.47C403.784 41.427 402.449 41.3301 401.098 41.3301C398.277 41.3301 396.511 42.9863 396.511 46.028V48.3269H393.394V52.3251H396.511V61.321H400.667Z" fill="white"/>
<path d="M82.3515 265.209C82.2669 265.209 82.1992 265.167 82.1484 265.082C81.7083 264.151 81.4375 263.195 81.3359 262.213C81.1328 260.757 81.0312 258.811 81.0312 256.373C81.0312 255.408 81.0481 254.443 81.082 253.478C81.3867 244.998 82.4869 233.454 84.3828 218.846L84.5859 217.475C79.7955 217.881 74.1334 219.057 67.5996 221.004L65.1113 221.715C59.7962 223.289 55.3444 224.381 51.7558 224.99C49.8092 238.498 48.8359 247.529 48.8359 252.082C48.8359 253.707 48.9714 254.782 49.2422 255.307L49.2676 255.434C49.2676 255.603 49.1829 255.687 49.0137 255.687C48.9121 255.687 48.8359 255.645 48.7852 255.561C48.599 255.171 48.4805 254.79 48.4297 254.418V254.393C48.2943 253.614 48.2266 252.463 48.2266 250.939C48.2773 245.777 48.9883 237.203 50.3593 225.219C47.6849 225.659 45.1543 225.879 42.7676 225.879C41.9212 225.879 41.0749 225.853 40.2285 225.803C40.0762 225.803 40 225.718 40 225.549C40 225.413 40.0762 225.329 40.2285 225.295C43.7155 225.075 47.1517 224.559 50.5371 223.746C50.7063 222.206 51.2565 217.635 52.1875 210.035C53.7617 197.086 54.7942 188.047 55.2851 182.918C55.319 182.562 55.4544 182.283 55.6914 182.08C55.9283 181.877 56.1992 181.775 56.5039 181.775C56.9101 181.775 57.2402 181.919 57.4941 182.207C57.6803 182.427 57.7734 182.689 57.7734 182.994V183.172C57.1302 188.521 56.4023 193.844 55.5898 199.143C55.4713 199.853 54.9127 203.569 53.914 210.289C52.8138 217.669 52.1705 222.045 51.9843 223.416L53.7617 222.959C55.5898 222.468 60.0162 221.165 67.041 219.049C71.4759 217.678 76.0293 216.662 80.7011 216.002C82.0722 215.833 83.4433 215.723 84.8144 215.672C85.9147 207.462 87.4127 197.052 89.3086 184.441C89.9518 180.125 90.3157 177.747 90.4003 177.307C90.6204 175.851 90.8235 174.412 91.0097 172.99C91.0605 172.669 91.1959 172.423 91.416 172.254C91.636 172.085 91.873 172 92.1269 172C92.4993 172 92.804 172.144 93.041 172.432C93.1933 172.635 93.2695 172.863 93.2695 173.117V173.295C93.0494 174.751 92.8125 176.189 92.5586 177.611L91.3144 184.746C89.0462 198.203 87.3704 208.503 86.2871 215.646C89.1985 215.646 92.0169 215.968 94.7421 216.611C95.0299 216.679 95.1738 216.848 95.1738 217.119C95.1738 217.322 95.0892 217.475 94.9199 217.576C94.8352 217.644 94.7337 217.678 94.6152 217.678H94.539C92.5586 217.407 90.5781 217.271 88.5976 217.271C87.7343 217.271 86.8711 217.297 86.0078 217.348L85.9062 218.084C84.7721 225.21 83.7226 233.183 82.7578 242.002C82.0468 248.502 81.6914 253.775 81.6914 257.82V259.268C81.7421 261.756 82.0384 263.609 82.58 264.828L82.6054 264.98C82.6054 265.133 82.5208 265.209 82.3515 265.209ZM102.346 245.557H102.016C100.814 245.557 99.6209 245.362 98.436 244.973C96.574 244.363 95.1521 243.187 94.1703 241.443C93.3748 239.988 92.977 238.473 92.977 236.898V236.695C92.3845 236.746 91.7921 236.78 91.1996 236.797C90.878 236.797 90.7003 236.644 90.6664 236.34C90.6664 235.984 90.8442 235.807 91.1996 235.807C91.589 235.824 91.9868 235.832 92.393 235.832H93.0024C93.2901 232.142 94.7459 229.002 97.3696 226.412C99.7394 224.076 102.566 222.908 105.85 222.908C106.832 222.908 107.551 223.297 108.008 224.076C108.364 224.669 108.541 225.388 108.541 226.234C108.541 226.81 108.448 227.377 108.262 227.936C107.721 229.628 106.79 231.05 105.469 232.201C103.032 234.385 99.6886 235.79 95.4399 236.416V236.721C95.4399 240.14 96.6078 242.493 98.9438 243.779C100.027 244.338 101.373 244.617 102.981 244.617C104.792 244.617 106.603 244.287 108.415 243.627C113.391 241.663 117.115 238.506 119.586 234.156C119.603 234.105 119.646 234.08 119.713 234.08C119.764 234.097 119.806 234.131 119.84 234.182L119.815 234.283C118.19 237.313 115.947 239.801 113.086 241.748C111.004 243.187 108.702 244.245 106.18 244.922C104.911 245.294 103.633 245.506 102.346 245.557ZM95.4653 235.68C99.5278 235.273 102.761 234.004 105.165 231.871C106.434 230.754 107.323 229.4 107.831 227.809C107.983 227.318 108.059 226.818 108.059 226.311C108.059 224.99 107.627 224.093 106.764 223.619C106.527 223.518 106.265 223.467 105.977 223.467C104.741 223.467 103.472 223.788 102.168 224.432C100.12 225.515 98.4868 227.191 97.268 229.459C96.2355 231.389 95.6345 233.462 95.4653 235.68ZM128.714 245.658C126.547 245.658 124.719 244.778 123.229 243.018C121.164 240.512 119.793 236.966 119.116 232.379C117.627 232.785 116.086 233.047 114.495 233.166C114.207 233.166 114.047 233.031 114.013 232.76C114.013 232.421 114.182 232.252 114.52 232.252C114.91 232.286 115.291 232.303 115.663 232.303C116.797 232.303 117.923 232.167 119.04 231.896C118.752 229.781 118.608 227.368 118.608 224.66C118.608 219.277 119.218 213.971 120.436 208.74C122.045 201.563 124.482 195.368 127.749 190.154C129.916 186.718 132.353 184.382 135.061 183.146C136.077 182.723 137.093 182.512 138.108 182.512C138.853 182.512 139.581 182.681 140.292 183.019C141.121 183.493 141.765 184.12 142.222 184.898C143.288 186.676 143.821 189.062 143.821 192.059C143.821 193.802 143.694 195.52 143.44 197.213C142.476 203.611 140.385 209.832 137.169 215.875C133.631 222.51 129.247 227.343 124.017 230.373C123.103 230.881 122.155 231.321 121.173 231.693C121.782 240.258 124.499 244.541 129.323 244.541C130.22 244.541 131.278 244.279 132.497 243.754C135.053 242.569 137.626 240.622 140.216 237.914C141.621 236.424 142.653 235.172 143.313 234.156C143.347 234.122 143.398 234.105 143.466 234.105C143.5 234.105 143.534 234.131 143.567 234.182L143.542 234.283C142.662 235.705 141.655 237.017 140.521 238.219C138.015 240.944 135.451 243.018 132.827 244.439C131.354 245.252 129.983 245.658 128.714 245.658ZM121.147 231.236C122.061 230.898 122.95 230.483 123.813 229.992C128.976 227.013 133.284 222.24 136.737 215.672C139.937 209.663 141.934 203.484 142.73 197.137C142.916 195.732 143.009 194.327 143.009 192.922C143.009 189.587 142.484 187.082 141.435 185.406C140.656 184.204 139.606 183.603 138.286 183.603C137.338 183.603 136.424 183.824 135.544 184.264C133.191 185.432 131.084 187.7 129.222 191.068C126.547 195.96 124.474 202.037 123.001 209.299C121.681 215.799 121.02 222.062 121.02 228.088C121.02 229.12 121.063 230.17 121.147 231.236ZM138.857 276.025C138.603 276.025 138.408 275.932 138.273 275.746C138.188 275.628 138.146 275.492 138.146 275.34C138.146 275.289 138.154 275.255 138.171 275.238C140.27 259.648 141.887 246.631 143.021 236.187C143.512 231.346 143.757 227.605 143.757 224.965L143.732 223.162C143.732 222.942 143.808 222.747 143.96 222.578C144.13 222.409 144.358 222.324 144.646 222.324C144.849 222.324 145.035 222.392 145.205 222.527C145.526 222.832 145.687 224.516 145.687 227.58C145.687 230.915 145.365 235.62 144.722 241.697C147.295 232.235 150.02 226.251 152.898 223.746C153.863 222.917 154.921 222.502 156.072 222.502C157.629 222.502 158.924 223.001 159.957 224C160.871 224.999 161.429 226.124 161.632 227.377C161.802 228.257 161.886 229.137 161.886 230.018C161.886 230.339 161.878 230.652 161.861 230.957C161.641 233.818 160.854 236.678 159.5 239.539C161.328 238.997 163.122 238.38 164.882 237.686C167.337 236.721 169.182 235.536 170.417 234.131C170.451 234.097 170.485 234.08 170.519 234.08C170.621 234.08 170.671 234.122 170.671 234.207C170.671 234.258 170.663 234.292 170.646 234.309C169.901 235.189 169.038 235.925 168.056 236.518C166.11 237.719 163.181 238.947 159.271 240.199L159.169 240.25C158.543 241.486 157.764 242.645 156.833 243.728C155.801 244.896 154.735 245.506 153.634 245.557C152.331 245.557 151.679 245.032 151.679 243.982C151.679 242.984 152.365 242.18 153.736 241.57C154.701 241.113 156.004 240.631 157.646 240.123C159.305 236.568 160.134 233.115 160.134 229.764C160.134 227.699 159.694 226.141 158.814 225.092C158.069 224.262 157.079 223.848 155.843 223.848C155.082 223.848 154.337 224.118 153.609 224.66C152.779 225.286 152.052 226.057 151.425 226.971C149.8 229.29 148.387 232.286 147.185 235.959C145.932 239.666 144.891 243.475 144.062 247.385C143.69 250.245 143.266 253.309 142.792 256.576C140.829 269.542 139.517 276.025 138.857 276.025ZM153.634 244.617C154.802 244.516 156.013 243.271 157.265 240.885C154.54 241.85 153.016 242.687 152.695 243.398C152.593 243.618 152.542 243.822 152.542 244.008C152.542 244.109 152.559 244.211 152.593 244.312C152.627 244.414 152.729 244.49 152.898 244.541C153.084 244.592 153.279 244.617 153.482 244.617H153.634ZM176.574 245.734C175.846 245.734 175.135 245.59 174.441 245.303C173.493 244.88 172.74 244.245 172.182 243.398C171.166 241.74 170.599 240.005 170.48 238.193C170.396 237.313 170.353 236.433 170.353 235.553C170.353 234.689 170.396 233.826 170.48 232.963C170.785 229.527 171.496 226.184 172.613 222.934C172.766 222.493 173.07 222.273 173.527 222.273C173.629 222.273 173.739 222.29 173.857 222.324C174.281 222.477 174.492 222.773 174.492 223.213V223.416C173.849 226.683 173.35 229.941 172.994 233.191C172.842 234.461 172.766 235.73 172.766 237C172.766 239.37 173.087 241.206 173.73 242.51C174.374 243.796 175.525 244.456 177.184 244.49C178.724 244.406 180.112 243.762 181.348 242.561C183.582 240.394 185.309 237.575 186.527 234.105C186.527 234.072 186.561 234.055 186.629 234.055C186.663 234.089 186.68 234.122 186.68 234.156C184.75 239.454 182.465 242.975 179.824 244.719C178.809 245.396 177.725 245.734 176.574 245.734ZM174.365 217.83C174.061 217.83 173.798 217.72 173.578 217.5C173.358 217.28 173.248 217.018 173.248 216.713C173.248 216.408 173.358 216.146 173.578 215.926C173.798 215.706 174.061 215.596 174.365 215.596C174.67 215.596 174.932 215.706 175.152 215.926C175.372 216.146 175.482 216.408 175.482 216.713C175.482 217.018 175.372 217.28 175.152 217.5C174.932 217.72 174.67 217.83 174.365 217.83ZM203.221 245.684C201.63 245.684 200.834 244.304 200.834 241.545C200.834 239.784 201.054 237.542 201.495 234.816C201.495 234.681 201.528 234.461 201.596 234.156C202.206 230.432 202.519 227.851 202.536 226.412C202.536 225.143 202.129 224.305 201.317 223.898C200.911 223.712 200.555 223.619 200.25 223.619C199.066 223.619 197.974 224.085 196.975 225.016C195.147 226.742 193.53 229.561 192.125 233.471C191.059 236.416 190.179 239.488 189.485 242.687L188.926 245.379C188.774 245.531 188.554 245.607 188.266 245.607C188.097 245.523 188.012 245.472 188.012 245.455C188.012 245.421 187.995 245.396 187.961 245.379C186.776 244.042 186.184 241.553 186.184 237.914C186.184 237.135 186.218 236.357 186.286 235.578C186.675 231.363 187.614 227.165 189.104 222.984C189.222 222.646 189.451 222.477 189.79 222.477C189.874 222.477 189.959 222.493 190.043 222.527C190.382 222.646 190.551 222.874 190.551 223.213C190.551 223.348 190.433 223.958 190.196 225.041C189.129 230.018 188.368 234.986 187.911 239.945C187.877 240.284 187.86 240.614 187.86 240.936C187.86 241.968 188.004 242.958 188.291 243.906C188.342 244.025 188.418 244.16 188.52 244.312C188.977 241.993 189.375 240.14 189.713 238.752C190.746 234.639 192.015 231.186 193.522 228.393C195.553 224.686 197.838 222.832 200.377 222.832C201.512 222.832 202.375 223.238 202.967 224.051C203.847 225.32 204.288 227.115 204.288 229.434C204.288 230.669 204.068 232.514 203.627 234.969L202.815 239.107C202.578 240.309 202.459 241.452 202.459 242.535C202.459 243.195 202.519 243.661 202.637 243.932C202.773 244.304 203.12 244.49 203.678 244.49C204.762 244.422 206.04 243.424 207.512 241.494C209.103 239.429 210.508 236.983 211.727 234.156C211.744 234.122 211.761 234.105 211.778 234.105C211.812 234.089 211.837 234.08 211.854 234.08C211.939 234.08 211.981 234.097 211.981 234.131C211.998 234.165 212.006 234.19 212.006 234.207L211.981 234.258C210.898 236.915 209.577 239.446 208.02 241.85C207.258 243.085 206.251 244.152 204.999 245.049C204.406 245.472 203.814 245.684 203.221 245.684ZM219.864 275.975H219.56C217.342 275.975 215.455 275.306 213.897 273.969C211.917 272.158 210.927 269.957 210.927 267.367C210.927 265.776 211.257 264.109 211.917 262.365C213.17 259.098 215.387 255.814 218.569 252.514C222.953 248.079 228.226 244.042 234.388 240.402L234.438 237.482C234.438 236.518 234.421 235.561 234.388 234.613C234.286 232.667 233.998 231.363 233.524 230.703C233.423 230.568 233.338 230.5 233.27 230.5C232.83 230.5 232.339 230.754 231.798 231.262C231.798 232.616 232.043 233.716 232.534 234.562C232.585 234.664 232.61 234.766 232.61 234.867C232.61 235.036 232.543 235.155 232.407 235.223C232.289 235.29 232.187 235.324 232.102 235.324C231.933 235.324 231.789 235.24 231.671 235.07C231.298 234.173 231.112 233.284 231.112 232.404L231.138 231.973C230.461 232.785 229.479 234.139 228.192 236.035C227.092 237.66 226.246 238.862 225.653 239.641C222.793 243.669 219.56 245.684 215.954 245.684C214.668 245.684 213.517 245.286 212.501 244.49C211.214 243.271 210.571 241.587 210.571 239.437C210.571 238.049 210.817 236.636 211.308 235.197C212.696 231.169 215.099 227.936 218.518 225.498C220.956 223.771 223.537 222.908 226.263 222.908C228.666 222.908 230.308 223.484 231.188 224.635C231.696 225.43 231.95 226.556 231.95 228.012L231.823 230.221C232.297 229.848 232.771 229.637 233.245 229.586C234.041 229.586 234.658 230.212 235.099 231.465C235.826 233.479 236.275 236.069 236.444 239.234C240.845 236.712 244.798 234.969 248.302 234.004C248.386 234.004 248.446 234.038 248.479 234.105C248.479 234.207 248.446 234.258 248.378 234.258C244.959 235.256 240.989 237.11 236.47 239.818V240.047C236.487 240.165 236.495 240.555 236.495 241.215C236.495 244.905 236.182 248.578 235.556 252.234C234.946 256.161 233.948 260.004 232.56 263.762C230.816 268.247 228.565 271.607 225.806 273.842C223.977 275.23 221.997 275.941 219.864 275.975ZM219.28 274.324C221.295 274.324 223.089 273.673 224.663 272.369C227.067 270.406 229.03 267.291 230.554 263.025C232.805 256.712 234.066 249.399 234.337 241.088C228.311 244.88 223.283 248.925 219.255 253.225C214.651 258.184 212.332 262.831 212.298 267.164C212.298 267.519 212.323 267.875 212.374 268.23C212.662 270.092 213.491 271.616 214.862 272.801C216.149 273.816 217.621 274.324 219.28 274.324ZM216.919 244.49C218.29 244.49 219.653 244.059 221.007 243.195C222.598 242.129 223.994 240.825 225.196 239.285C226.33 237.897 227.448 236.306 228.548 234.512C229.377 233.242 230.249 232.023 231.163 230.855C231.18 230.839 231.231 230.365 231.315 229.434C231.4 228.706 231.442 228.122 231.442 227.682C231.442 226.429 231.231 225.506 230.808 224.914C230.097 223.949 228.886 223.467 227.177 223.467H226.72C225.873 223.467 225.044 223.577 224.231 223.797C221.591 224.592 219.323 226.192 217.427 228.596C215.666 230.695 214.321 233.124 213.39 235.883C212.899 237.288 212.653 238.667 212.653 240.021C212.653 240.394 212.67 240.766 212.704 241.139C212.806 241.985 213.11 242.704 213.618 243.297C214.363 244.092 215.463 244.49 216.919 244.49ZM260.742 276.025C260.488 276.025 260.294 275.932 260.158 275.746C260.073 275.628 260.031 275.492 260.031 275.34C260.031 275.289 260.04 275.255 260.057 275.238C262.156 259.648 263.772 246.631 264.906 236.187C265.397 231.346 265.642 227.605 265.642 224.965L265.617 223.162C265.617 222.942 265.693 222.747 265.846 222.578C266.015 222.409 266.243 222.324 266.531 222.324C266.734 222.324 266.92 222.392 267.09 222.527C267.411 222.832 267.572 224.516 267.572 227.58C267.572 230.915 267.251 235.62 266.607 241.697C269.18 232.235 271.906 226.251 274.783 223.746C275.748 222.917 276.806 222.502 277.957 222.502C279.514 222.502 280.809 223.001 281.842 224C282.756 224.999 283.314 226.124 283.517 227.377C283.687 228.257 283.771 229.137 283.771 230.018C283.771 230.339 283.763 230.652 283.746 230.957C283.526 233.818 282.739 236.678 281.385 239.539C283.213 238.997 285.007 238.38 286.767 237.686C289.222 236.721 291.067 235.536 292.303 234.131C292.336 234.097 292.37 234.08 292.404 234.08C292.506 234.08 292.557 234.122 292.557 234.207C292.557 234.258 292.548 234.292 292.531 234.309C291.786 235.189 290.923 235.925 289.941 236.518C287.995 237.719 285.066 238.947 281.156 240.199L281.055 240.25C280.428 241.486 279.65 242.645 278.719 243.728C277.686 244.896 276.62 245.506 275.519 245.557C274.216 245.557 273.564 245.032 273.564 243.982C273.564 242.984 274.25 242.18 275.621 241.57C276.586 241.113 277.889 240.631 279.531 240.123C281.19 236.568 282.019 233.115 282.019 229.764C282.019 227.699 281.579 226.141 280.699 225.092C279.954 224.262 278.964 223.848 277.728 223.848C276.967 223.848 276.222 224.118 275.494 224.66C274.665 225.286 273.937 226.057 273.31 226.971C271.685 229.29 270.272 232.286 269.07 235.959C267.818 239.666 266.777 243.475 265.947 247.385C265.575 250.245 265.152 253.309 264.678 256.576C262.714 269.542 261.402 276.025 260.742 276.025ZM275.519 244.617C276.687 244.516 277.898 243.271 279.15 240.885C276.425 241.85 274.902 242.687 274.58 243.398C274.478 243.618 274.428 243.822 274.428 244.008C274.428 244.109 274.445 244.211 274.478 244.312C274.512 244.414 274.614 244.49 274.783 244.541C274.969 244.592 275.164 244.617 275.367 244.617H275.519ZM301.354 245.557H301.024C299.822 245.557 298.629 245.362 297.444 244.973C295.582 244.363 294.16 243.187 293.178 241.443C292.383 239.988 291.985 238.473 291.985 236.898V236.695C291.392 236.746 290.8 236.78 290.207 236.797C289.886 236.797 289.708 236.644 289.674 236.34C289.674 235.984 289.852 235.807 290.207 235.807C290.597 235.824 290.995 235.832 291.401 235.832H292.01C292.298 232.142 293.754 229.002 296.377 226.412C298.747 224.076 301.574 222.908 304.858 222.908C305.84 222.908 306.559 223.297 307.016 224.076C307.371 224.669 307.549 225.388 307.549 226.234C307.549 226.81 307.456 227.377 307.27 227.936C306.728 229.628 305.797 231.05 304.477 232.201C302.039 234.385 298.696 235.79 294.448 236.416V236.721C294.448 240.14 295.616 242.493 297.952 243.779C299.035 244.338 300.381 244.617 301.989 244.617C303.8 244.617 305.611 244.287 307.422 243.627C312.399 241.663 316.123 238.506 318.594 234.156C318.611 234.105 318.653 234.08 318.721 234.08C318.772 234.097 318.814 234.131 318.848 234.182L318.823 234.283C317.198 237.313 314.955 239.801 312.094 241.748C310.012 243.187 307.71 244.245 305.188 244.922C303.918 245.294 302.64 245.506 301.354 245.557ZM294.473 235.68C298.536 235.273 301.769 234.004 304.172 231.871C305.442 230.754 306.33 229.4 306.838 227.809C306.991 227.318 307.067 226.818 307.067 226.311C307.067 224.99 306.635 224.093 305.772 223.619C305.535 223.518 305.272 223.467 304.985 223.467C303.749 223.467 302.48 223.788 301.176 224.432C299.128 225.515 297.495 227.191 296.276 229.459C295.243 231.389 294.642 233.462 294.473 235.68ZM325.309 245.582C324.294 245.582 323.329 245.286 322.415 244.693C321.569 244.135 320.875 243.441 320.333 242.611C319.029 240.512 318.378 238.066 318.378 235.273C318.378 231.753 319.351 228.841 321.298 226.539C321.704 226.099 322.161 225.718 322.669 225.396C323.634 223.585 325.191 222.68 327.341 222.68C327.933 222.68 328.492 222.781 329.016 222.984C330.658 223.695 331.793 225.151 332.419 227.352C332.859 228.926 333.079 230.508 333.079 232.1C333.079 233.742 332.918 235.383 332.597 237.025C334.949 236.653 336.972 235.646 338.665 234.004C338.682 233.97 338.707 233.953 338.741 233.953C338.843 233.953 338.893 233.995 338.893 234.08C338.893 234.131 338.877 234.165 338.843 234.182C337.184 235.874 335.059 237 332.47 237.559C332.046 239.539 331.251 241.35 330.083 242.992C328.779 244.719 327.188 245.582 325.309 245.582ZM331.099 237.178C331.268 237.178 331.42 237.169 331.556 237.152C331.691 237.118 331.826 237.102 331.962 237.102C332.266 235.73 332.419 234.351 332.419 232.963C332.402 230.982 332.148 229.197 331.657 227.605C331.403 226.776 331.031 226.023 330.54 225.346C329.761 224.245 328.763 223.695 327.544 223.695C326.427 223.695 325.504 223.966 324.776 224.508C325.216 224.389 325.665 224.33 326.122 224.33C326.274 224.33 326.427 224.339 326.579 224.355C326.748 224.372 326.875 224.432 326.96 224.533C327.044 224.635 327.087 224.745 327.087 224.863C327.087 225.202 326.918 225.396 326.579 225.447C325.259 225.549 324.158 225.997 323.278 226.793C323.126 227.352 323.05 227.919 323.05 228.494C323.05 230.492 323.701 232.353 325.005 234.08C326.054 235.451 327.417 236.391 329.093 236.898C329.821 237.085 330.489 237.178 331.099 237.178ZM325.893 244.617C327.315 244.617 328.543 243.94 329.575 242.586C330.625 241.215 331.361 239.658 331.784 237.914C331.818 237.846 331.835 237.762 331.835 237.66H331.759C331.691 237.728 331.319 237.762 330.641 237.762C330.066 237.762 329.49 237.694 328.915 237.559C327.036 237.135 325.47 236.179 324.218 234.689C322.711 232.844 321.958 230.737 321.958 228.367C320.824 230.263 320.257 232.574 320.257 235.299C320.257 237.669 320.748 239.827 321.729 241.773C322.102 242.501 322.593 243.119 323.202 243.627C323.964 244.287 324.861 244.617 325.893 244.617ZM334.462 276.025C334.208 276.025 334.014 275.932 333.878 275.746C333.794 275.628 333.751 275.492 333.751 275.34C333.751 275.289 333.76 275.255 333.777 275.238C335.876 259.648 337.492 246.631 338.626 236.187C339.117 231.346 339.363 227.605 339.363 224.965L339.337 223.162C339.337 222.942 339.413 222.747 339.566 222.578C339.735 222.409 339.964 222.324 340.251 222.324C340.454 222.324 340.641 222.392 340.81 222.527C341.132 222.832 341.292 224.516 341.292 227.58C341.292 230.915 340.971 235.62 340.327 241.697C342.9 232.235 345.626 226.251 348.503 223.746C349.468 222.917 350.526 222.502 351.677 222.502C353.234 222.502 354.529 223.001 355.562 224C356.476 224.999 357.035 226.124 357.238 227.377C357.407 228.257 357.492 229.137 357.492 230.018C357.492 230.339 357.483 230.652 357.466 230.957C357.246 233.818 356.459 236.678 355.105 239.539C356.933 238.997 358.727 238.38 360.488 237.686C362.942 236.721 364.787 235.536 366.023 234.131C366.057 234.097 366.091 234.08 366.124 234.08C366.226 234.08 366.277 234.122 366.277 234.207C366.277 234.258 366.268 234.292 366.251 234.309C365.507 235.189 364.643 235.925 363.661 236.518C361.715 237.719 358.786 238.947 354.876 240.199L354.775 240.25C354.148 241.486 353.37 242.645 352.439 243.728C351.406 244.896 350.34 245.506 349.24 245.557C347.936 245.557 347.285 245.032 347.285 243.982C347.285 242.984 347.97 242.18 349.341 241.57C350.306 241.113 351.609 240.631 353.251 240.123C354.91 236.568 355.74 233.115 355.74 229.764C355.74 227.699 355.299 226.141 354.419 225.092C353.674 224.262 352.684 223.848 351.449 223.848C350.687 223.848 349.942 224.118 349.214 224.66C348.385 225.286 347.657 226.057 347.031 226.971C345.406 229.29 343.992 232.286 342.79 235.959C341.538 239.666 340.497 243.475 339.667 247.385C339.295 250.245 338.872 253.309 338.398 256.576C336.434 269.542 335.122 276.025 334.462 276.025ZM349.24 244.617C350.408 244.516 351.618 243.271 352.87 240.885C350.145 241.85 348.622 242.687 348.3 243.398C348.199 243.618 348.148 243.822 348.148 244.008C348.148 244.109 348.165 244.211 348.199 244.312C348.232 244.414 348.334 244.49 348.503 244.541C348.689 244.592 348.884 244.617 349.087 244.617H349.24ZM375.226 245.658C373.06 245.658 371.232 244.778 369.742 243.018C367.677 240.512 366.306 236.966 365.629 232.379C364.139 232.785 362.599 233.047 361.008 233.166C360.72 233.166 360.559 233.031 360.525 232.76C360.525 232.421 360.694 232.252 361.033 232.252C361.422 232.286 361.803 232.303 362.176 232.303C363.31 232.303 364.435 232.167 365.553 231.896C365.265 229.781 365.121 227.368 365.121 224.66C365.121 219.277 365.73 213.971 366.949 208.74C368.557 201.563 370.995 195.368 374.262 190.154C376.428 186.718 378.866 184.382 381.574 183.146C382.59 182.723 383.605 182.512 384.621 182.512C385.366 182.512 386.094 182.681 386.805 183.019C387.634 183.493 388.277 184.12 388.734 184.898C389.801 186.676 390.334 189.062 390.334 192.059C390.334 193.802 390.207 195.52 389.953 197.213C388.988 203.611 386.898 209.832 383.681 215.875C380.144 222.51 375.76 227.343 370.529 230.373C369.615 230.881 368.667 231.321 367.685 231.693C368.295 240.258 371.012 244.541 375.836 244.541C376.733 244.541 377.791 244.279 379.01 243.754C381.566 242.569 384.138 240.622 386.728 237.914C388.133 236.424 389.166 235.172 389.826 234.156C389.86 234.122 389.911 234.105 389.978 234.105C390.012 234.105 390.046 234.131 390.08 234.182L390.055 234.283C389.174 235.705 388.167 237.017 387.033 238.219C384.528 240.944 381.963 243.018 379.34 244.439C377.867 245.252 376.496 245.658 375.226 245.658ZM367.66 231.236C368.574 230.898 369.463 230.483 370.326 229.992C375.489 227.013 379.797 222.24 383.25 215.672C386.449 209.663 388.446 203.484 389.242 197.137C389.428 195.732 389.521 194.327 389.521 192.922C389.521 189.587 388.997 187.082 387.947 185.406C387.168 184.204 386.119 183.603 384.799 183.603C383.851 183.603 382.937 183.824 382.056 184.264C379.704 185.432 377.596 187.7 375.734 191.068C373.06 195.96 370.986 202.037 369.513 209.299C368.193 215.799 367.533 222.062 367.533 228.088C367.533 229.12 367.575 230.17 367.66 231.236ZM398.852 245.557H398.522C397.32 245.557 396.127 245.362 394.942 244.973C393.08 244.363 391.658 243.187 390.676 241.443C389.881 239.988 389.483 238.473 389.483 236.898V236.695C388.89 236.746 388.298 236.78 387.705 236.797C387.384 236.797 387.206 236.644 387.172 236.34C387.172 235.984 387.35 235.807 387.705 235.807C388.095 235.824 388.492 235.832 388.899 235.832H389.508C389.796 232.142 391.252 229.002 393.875 226.412C396.245 224.076 399.072 222.908 402.356 222.908C403.338 222.908 404.057 223.297 404.514 224.076C404.869 224.669 405.047 225.388 405.047 226.234C405.047 226.81 404.954 227.377 404.768 227.936C404.226 229.628 403.295 231.05 401.975 232.201C399.537 234.385 396.194 235.79 391.946 236.416V236.721C391.946 240.14 393.114 242.493 395.45 243.779C396.533 244.338 397.879 244.617 399.487 244.617C401.298 244.617 403.109 244.287 404.92 243.627C409.897 241.663 413.621 238.506 416.092 234.156C416.109 234.105 416.151 234.08 416.219 234.08C416.27 234.097 416.312 234.131 416.346 234.182L416.321 234.283C414.696 237.313 412.453 239.801 409.592 241.748C407.51 243.187 405.208 244.245 402.686 244.922C401.416 245.294 400.138 245.506 398.852 245.557ZM391.971 235.68C396.034 235.273 399.267 234.004 401.67 231.871C402.94 230.754 403.828 229.4 404.336 227.809C404.489 227.318 404.565 226.818 404.565 226.311C404.565 224.99 404.133 224.093 403.27 223.619C403.033 223.518 402.77 223.467 402.483 223.467C401.247 223.467 399.978 223.788 398.674 224.432C396.626 225.515 394.992 227.191 393.774 229.459C392.741 231.389 392.14 233.462 391.971 235.68Z" fill="white"/>
<path d="M83.3515 265.209C83.2669 265.209 83.1992 265.167 83.1484 265.082C82.7083 264.151 82.4375 263.195 82.3359 262.213C82.1328 260.757 82.0312 258.811 82.0312 256.373C82.0312 255.408 82.0481 254.443 82.082 253.478C82.3867 244.998 83.4869 233.454 85.3828 218.846L85.5859 217.475C80.7955 217.881 75.1334 219.057 68.5996 221.004L66.1113 221.715C60.7962 223.289 56.3444 224.381 52.7558 224.99C50.8092 238.498 49.8359 247.529 49.8359 252.082C49.8359 253.707 49.9713 254.782 50.2421 255.307L50.2675 255.434C50.2675 255.603 50.1829 255.687 50.0136 255.687C49.9121 255.687 49.8359 255.645 49.7851 255.561C49.599 255.171 49.4805 254.79 49.4297 254.418V254.393C49.2943 253.614 49.2266 252.463 49.2266 250.939C49.2773 245.777 49.9882 237.203 51.3593 225.219C48.6849 225.659 46.1543 225.879 43.7676 225.879C42.9212 225.879 42.0749 225.853 41.2285 225.803C41.0762 225.803 41 225.718 41 225.549C41 225.413 41.0762 225.329 41.2285 225.295C44.7155 225.075 48.1517 224.559 51.5371 223.746C51.7063 222.206 52.2565 217.635 53.1875 210.035C54.7617 197.086 55.7942 188.047 56.2851 182.918C56.319 182.562 56.4544 182.283 56.6914 182.08C56.9283 181.877 57.1992 181.775 57.5039 181.775C57.9101 181.775 58.2402 181.919 58.4941 182.207C58.6803 182.427 58.7734 182.689 58.7734 182.994V183.172C58.1302 188.521 57.4023 193.844 56.5898 199.143C56.4713 199.853 55.9127 203.569 54.914 210.289C53.8138 217.669 53.1705 222.045 52.9843 223.416L54.7617 222.959C56.5898 222.468 61.0162 221.165 68.041 219.049C72.4759 217.678 77.0293 216.662 81.7011 216.002C83.0722 215.833 84.4433 215.723 85.8144 215.672C86.9147 207.462 88.4127 197.052 90.3086 184.441C90.9518 180.125 91.3157 177.747 91.4003 177.307C91.6204 175.851 91.8235 174.412 92.0097 172.99C92.0605 172.669 92.1959 172.423 92.416 172.254C92.636 172.085 92.873 172 93.1269 172C93.4993 172 93.804 172.144 94.041 172.432C94.1933 172.635 94.2695 172.863 94.2695 173.117V173.295C94.0494 174.751 93.8125 176.189 93.5586 177.611L92.3144 184.746C90.0462 198.203 88.3704 208.503 87.2871 215.646C90.1985 215.646 93.0169 215.968 95.7421 216.611C96.0299 216.679 96.1738 216.848 96.1738 217.119C96.1738 217.322 96.0892 217.475 95.9199 217.576C95.8352 217.644 95.7337 217.678 95.6152 217.678H95.539C93.5586 217.407 91.5781 217.271 89.5976 217.271C88.7343 217.271 87.8711 217.297 87.0078 217.348L86.9062 218.084C85.7721 225.21 84.7226 233.183 83.7578 242.002C83.0468 248.502 82.6914 253.775 82.6914 257.82V259.268C82.7421 261.756 83.0384 263.609 83.58 264.828L83.6054 264.98C83.6054 265.133 83.5208 265.209 83.3515 265.209ZM103.346 245.557H103.016C101.814 245.557 100.621 245.362 99.436 244.973C97.574 244.363 96.1521 243.187 95.1703 241.443C94.3748 239.988 93.977 238.473 93.977 236.898V236.695C93.3845 236.746 92.7921 236.78 92.1996 236.797C91.878 236.797 91.7003 236.644 91.6664 236.34C91.6664 235.984 91.8442 235.807 92.1996 235.807C92.589 235.824 92.9868 235.832 93.393 235.832H94.0024C94.2901 232.142 95.7459 229.002 98.3696 226.412C100.739 224.076 103.566 222.908 106.85 222.908C107.832 222.908 108.551 223.297 109.008 224.076C109.364 224.669 109.541 225.388 109.541 226.234C109.541 226.81 109.448 227.377 109.262 227.936C108.721 229.628 107.79 231.05 106.469 232.201C104.032 234.385 100.689 235.79 96.4399 236.416V236.721C96.4399 240.14 97.6078 242.493 99.9438 243.779C101.027 244.338 102.373 244.617 103.981 244.617C105.792 244.617 107.603 244.287 109.415 243.627C114.391 241.663 118.115 238.506 120.586 234.156C120.603 234.105 120.646 234.08 120.713 234.08C120.764 234.097 120.806 234.131 120.84 234.182L120.815 234.283C119.19 237.313 116.947 239.801 114.086 241.748C112.004 243.187 109.702 244.245 107.18 244.922C105.911 245.294 104.633 245.506 103.346 245.557ZM96.4653 235.68C100.528 235.273 103.761 234.004 106.165 231.871C107.434 230.754 108.323 229.4 108.831 227.809C108.983 227.318 109.059 226.818 109.059 226.311C109.059 224.99 108.627 224.093 107.764 223.619C107.527 223.518 107.265 223.467 106.977 223.467C105.741 223.467 104.472 223.788 103.168 224.432C101.12 225.515 99.4868 227.191 98.268 229.459C97.2355 231.389 96.6345 233.462 96.4653 235.68ZM129.714 245.658C127.547 245.658 125.719 244.778 124.229 243.018C122.164 240.512 120.793 236.966 120.116 232.379C118.627 232.785 117.086 233.047 115.495 233.166C115.207 233.166 115.047 233.031 115.013 232.76C115.013 232.421 115.182 232.252 115.52 232.252C115.91 232.286 116.291 232.303 116.663 232.303C117.797 232.303 118.923 232.167 120.04 231.896C119.752 229.781 119.608 227.368 119.608 224.66C119.608 219.277 120.218 213.971 121.436 208.74C123.045 201.563 125.482 195.368 128.749 190.154C130.916 186.718 133.353 184.382 136.061 183.146C137.077 182.723 138.093 182.512 139.108 182.512C139.853 182.512 140.581 182.681 141.292 183.019C142.121 183.493 142.765 184.12 143.222 184.898C144.288 186.676 144.821 189.062 144.821 192.059C144.821 193.802 144.694 195.52 144.44 197.213C143.476 203.611 141.385 209.832 138.169 215.875C134.631 222.51 130.247 227.343 125.017 230.373C124.103 230.881 123.155 231.321 122.173 231.693C122.782 240.258 125.499 244.541 130.323 244.541C131.22 244.541 132.278 244.279 133.497 243.754C136.053 242.569 138.626 240.622 141.216 237.914C142.621 236.424 143.653 235.172 144.313 234.156C144.347 234.122 144.398 234.105 144.466 234.105C144.5 234.105 144.534 234.131 144.567 234.182L144.542 234.283C143.662 235.705 142.655 237.017 141.521 238.219C139.015 240.944 136.451 243.018 133.827 244.439C132.354 245.252 130.983 245.658 129.714 245.658ZM122.147 231.236C123.061 230.898 123.95 230.483 124.813 229.992C129.976 227.013 134.284 222.24 137.737 215.672C140.937 209.663 142.934 203.484 143.73 197.137C143.916 195.732 144.009 194.327 144.009 192.922C144.009 189.587 143.484 187.082 142.435 185.406C141.656 184.204 140.606 183.603 139.286 183.603C138.338 183.603 137.424 183.824 136.544 184.264C134.191 185.432 132.084 187.7 130.222 191.068C127.547 195.96 125.474 202.037 124.001 209.299C122.681 215.799 122.02 222.062 122.02 228.088C122.02 229.12 122.063 230.17 122.147 231.236ZM139.857 276.025C139.603 276.025 139.408 275.932 139.273 275.746C139.188 275.628 139.146 275.492 139.146 275.34C139.146 275.289 139.154 275.255 139.171 275.238C141.27 259.648 142.887 246.631 144.021 236.187C144.512 231.346 144.757 227.605 144.757 224.965L144.732 223.162C144.732 222.942 144.808 222.747 144.96 222.578C145.13 222.409 145.358 222.324 145.646 222.324C145.849 222.324 146.035 222.392 146.205 222.527C146.526 222.832 146.687 224.516 146.687 227.58C146.687 230.915 146.365 235.62 145.722 241.697C148.295 232.235 151.02 226.251 153.898 223.746C154.863 222.917 155.921 222.502 157.072 222.502C158.629 222.502 159.924 223.001 160.957 224C161.871 224.999 162.429 226.124 162.632 227.377C162.802 228.257 162.886 229.137 162.886 230.018C162.886 230.339 162.878 230.652 162.861 230.957C162.641 233.818 161.854 236.678 160.5 239.539C162.328 238.997 164.122 238.38 165.882 237.686C168.337 236.721 170.182 235.536 171.417 234.131C171.451 234.097 171.485 234.08 171.519 234.08C171.621 234.08 171.671 234.122 171.671 234.207C171.671 234.258 171.663 234.292 171.646 234.309C170.901 235.189 170.038 235.925 169.056 236.518C167.11 237.719 164.181 238.947 160.271 240.199L160.169 240.25C159.543 241.486 158.764 242.645 157.833 243.728C156.801 244.896 155.735 245.506 154.634 245.557C153.331 245.557 152.679 245.032 152.679 243.982C152.679 242.984 153.365 242.18 154.736 241.57C155.701 241.113 157.004 240.631 158.646 240.123C160.305 236.568 161.134 233.115 161.134 229.764C161.134 227.699 160.694 226.141 159.814 225.092C159.069 224.262 158.079 223.848 156.843 223.848C156.082 223.848 155.337 224.118 154.609 224.66C153.779 225.286 153.052 226.057 152.425 226.971C150.8 229.29 149.387 232.286 148.185 235.959C146.932 239.666 145.891 243.475 145.062 247.385C144.69 250.245 144.266 253.309 143.792 256.576C141.829 269.542 140.517 276.025 139.857 276.025ZM154.634 244.617C155.802 244.516 157.013 243.271 158.265 240.885C155.54 241.85 154.016 242.687 153.695 243.398C153.593 243.618 153.542 243.822 153.542 244.008C153.542 244.109 153.559 244.211 153.593 244.312C153.627 244.414 153.729 244.49 153.898 244.541C154.084 244.592 154.279 244.617 154.482 244.617H154.634ZM177.574 245.734C176.846 245.734 176.135 245.59 175.441 245.303C174.493 244.88 173.74 244.245 173.182 243.398C172.166 241.74 171.599 240.005 171.48 238.193C171.396 237.313 171.353 236.433 171.353 235.553C171.353 234.689 171.396 233.826 171.48 232.963C171.785 229.527 172.496 226.184 173.613 222.934C173.766 222.493 174.07 222.273 174.527 222.273C174.629 222.273 174.739 222.29 174.857 222.324C175.281 222.477 175.492 222.773 175.492 223.213V223.416C174.849 226.683 174.35 229.941 173.994 233.191C173.842 234.461 173.766 235.73 173.766 237C173.766 239.37 174.087 241.206 174.73 242.51C175.374 243.796 176.525 244.456 178.184 244.49C179.724 244.406 181.112 243.762 182.348 242.561C184.582 240.394 186.309 237.575 187.527 234.105C187.527 234.072 187.561 234.055 187.629 234.055C187.663 234.089 187.68 234.122 187.68 234.156C185.75 239.454 183.465 242.975 180.824 244.719C179.809 245.396 178.725 245.734 177.574 245.734ZM175.365 217.83C175.061 217.83 174.798 217.72 174.578 217.5C174.358 217.28 174.248 217.018 174.248 216.713C174.248 216.408 174.358 216.146 174.578 215.926C174.798 215.706 175.061 215.596 175.365 215.596C175.67 215.596 175.932 215.706 176.152 215.926C176.372 216.146 176.482 216.408 176.482 216.713C176.482 217.018 176.372 217.28 176.152 217.5C175.932 217.72 175.67 217.83 175.365 217.83ZM204.221 245.684C202.63 245.684 201.834 244.304 201.834 241.545C201.834 239.784 202.054 237.542 202.495 234.816C202.495 234.681 202.528 234.461 202.596 234.156C203.206 230.432 203.519 227.851 203.536 226.412C203.536 225.143 203.129 224.305 202.317 223.898C201.911 223.712 201.555 223.619 201.25 223.619C200.066 223.619 198.974 224.085 197.975 225.016C196.147 226.742 194.53 229.561 193.125 233.471C192.059 236.416 191.179 239.488 190.485 242.687L189.926 245.379C189.774 245.531 189.554 245.607 189.266 245.607C189.097 245.523 189.012 245.472 189.012 245.455C189.012 245.421 188.995 245.396 188.961 245.379C187.776 244.042 187.184 241.553 187.184 237.914C187.184 237.135 187.218 236.357 187.286 235.578C187.675 231.363 188.614 227.165 190.104 222.984C190.222 222.646 190.451 222.477 190.79 222.477C190.874 222.477 190.959 222.493 191.043 222.527C191.382 222.646 191.551 222.874 191.551 223.213C191.551 223.348 191.433 223.958 191.196 225.041C190.129 230.018 189.368 234.986 188.911 239.945C188.877 240.284 188.86 240.614 188.86 240.936C188.86 241.968 189.004 242.958 189.291 243.906C189.342 244.025 189.418 244.16 189.52 244.312C189.977 241.993 190.375 240.14 190.713 238.752C191.746 234.639 193.015 231.186 194.522 228.393C196.553 224.686 198.838 222.832 201.377 222.832C202.512 222.832 203.375 223.238 203.967 224.051C204.847 225.32 205.288 227.115 205.288 229.434C205.288 230.669 205.068 232.514 204.627 234.969L203.815 239.107C203.578 240.309 203.459 241.452 203.459 242.535C203.459 243.195 203.519 243.661 203.637 243.932C203.773 244.304 204.12 244.49 204.678 244.49C205.762 244.422 207.04 243.424 208.512 241.494C210.103 239.429 211.508 236.983 212.727 234.156C212.744 234.122 212.761 234.105 212.778 234.105C212.812 234.089 212.837 234.08 212.854 234.08C212.939 234.08 212.981 234.097 212.981 234.131C212.998 234.165 213.006 234.19 213.006 234.207L212.981 234.258C211.898 236.915 210.577 239.446 209.02 241.85C208.258 243.085 207.251 244.152 205.999 245.049C205.406 245.472 204.814 245.684 204.221 245.684ZM220.864 275.975H220.56C218.342 275.975 216.455 275.306 214.897 273.969C212.917 272.158 211.927 269.957 211.927 267.367C211.927 265.776 212.257 264.109 212.917 262.365C214.17 259.098 216.387 255.814 219.569 252.514C223.953 248.079 229.226 244.042 235.388 240.402L235.438 237.482C235.438 236.518 235.421 235.561 235.388 234.613C235.286 232.667 234.998 231.363 234.524 230.703C234.423 230.568 234.338 230.5 234.27 230.5C233.83 230.5 233.339 230.754 232.798 231.262C232.798 232.616 233.043 233.716 233.534 234.562C233.585 234.664 233.61 234.766 233.61 234.867C233.61 235.036 233.543 235.155 233.407 235.223C233.289 235.29 233.187 235.324 233.102 235.324C232.933 235.324 232.789 235.24 232.671 235.07C232.298 234.173 232.112 233.284 232.112 232.404L232.138 231.973C231.461 232.785 230.479 234.139 229.192 236.035C228.092 237.66 227.246 238.862 226.653 239.641C223.793 243.669 220.56 245.684 216.954 245.684C215.668 245.684 214.517 245.286 213.501 244.49C212.214 243.271 211.571 241.587 211.571 239.437C211.571 238.049 211.817 236.636 212.308 235.197C213.696 231.169 216.099 227.936 219.518 225.498C221.956 223.771 224.537 222.908 227.263 222.908C229.666 222.908 231.308 223.484 232.188 224.635C232.696 225.43 232.95 226.556 232.95 228.012L232.823 230.221C233.297 229.848 233.771 229.637 234.245 229.586C235.041 229.586 235.658 230.212 236.099 231.465C236.826 233.479 237.275 236.069 237.444 239.234C241.845 236.712 245.798 234.969 249.302 234.004C249.386 234.004 249.446 234.038 249.479 234.105C249.479 234.207 249.446 234.258 249.378 234.258C245.959 235.256 241.989 237.11 237.47 239.818V240.047C237.487 240.165 237.495 240.555 237.495 241.215C237.495 244.905 237.182 248.578 236.556 252.234C235.946 256.161 234.948 260.004 233.56 263.762C231.816 268.247 229.565 271.607 226.806 273.842C224.977 275.23 222.997 275.941 220.864 275.975ZM220.28 274.324C222.295 274.324 224.089 273.673 225.663 272.369C228.067 270.406 230.03 267.291 231.554 263.025C233.805 256.712 235.066 249.399 235.337 241.088C229.311 244.88 224.283 248.925 220.255 253.225C215.651 258.184 213.332 262.831 213.298 267.164C213.298 267.519 213.323 267.875 213.374 268.23C213.662 270.092 214.491 271.616 215.862 272.801C217.149 273.816 218.621 274.324 220.28 274.324ZM217.919 244.49C219.29 244.49 220.653 244.059 222.007 243.195C223.598 242.129 224.994 240.825 226.196 239.285C227.33 237.897 228.448 236.306 229.548 234.512C230.377 233.242 231.249 232.023 232.163 230.855C232.18 230.839 232.231 230.365 232.315 229.434C232.4 228.706 232.442 228.122 232.442 227.682C232.442 226.429 232.231 225.506 231.808 224.914C231.097 223.949 229.886 223.467 228.177 223.467H227.72C226.873 223.467 226.044 223.577 225.231 223.797C222.591 224.592 220.323 226.192 218.427 228.596C216.666 230.695 215.321 233.124 214.39 235.883C213.899 237.288 213.653 238.667 213.653 240.021C213.653 240.394 213.67 240.766 213.704 241.139C213.806 241.985 214.11 242.704 214.618 243.297C215.363 244.092 216.463 244.49 217.919 244.49ZM261.742 276.025C261.488 276.025 261.294 275.932 261.158 275.746C261.073 275.628 261.031 275.492 261.031 275.34C261.031 275.289 261.04 275.255 261.057 275.238C263.156 259.648 264.772 246.631 265.906 236.187C266.397 231.346 266.642 227.605 266.642 224.965L266.617 223.162C266.617 222.942 266.693 222.747 266.846 222.578C267.015 222.409 267.243 222.324 267.531 222.324C267.734 222.324 267.92 222.392 268.09 222.527C268.411 222.832 268.572 224.516 268.572 227.58C268.572 230.915 268.251 235.62 267.607 241.697C270.18 232.235 272.906 226.251 275.783 223.746C276.748 222.917 277.806 222.502 278.957 222.502C280.514 222.502 281.809 223.001 282.842 224C283.756 224.999 284.314 226.124 284.517 227.377C284.687 228.257 284.771 229.137 284.771 230.018C284.771 230.339 284.763 230.652 284.746 230.957C284.526 233.818 283.739 236.678 282.385 239.539C284.213 238.997 286.007 238.38 287.767 237.686C290.222 236.721 292.067 235.536 293.303 234.131C293.336 234.097 293.37 234.08 293.404 234.08C293.506 234.08 293.557 234.122 293.557 234.207C293.557 234.258 293.548 234.292 293.531 234.309C292.786 235.189 291.923 235.925 290.941 236.518C288.995 237.719 286.066 238.947 282.156 240.199L282.055 240.25C281.428 241.486 280.65 242.645 279.719 243.728C278.686 244.896 277.62 245.506 276.519 245.557C275.216 245.557 274.564 245.032 274.564 243.982C274.564 242.984 275.25 242.18 276.621 241.57C277.586 241.113 278.889 240.631 280.531 240.123C282.19 236.568 283.019 233.115 283.019 229.764C283.019 227.699 282.579 226.141 281.699 225.092C280.954 224.262 279.964 223.848 278.728 223.848C277.967 223.848 277.222 224.118 276.494 224.66C275.665 225.286 274.937 226.057 274.31 226.971C272.685 229.29 271.272 232.286 270.07 235.959C268.818 239.666 267.777 243.475 266.947 247.385C266.575 250.245 266.152 253.309 265.678 256.576C263.714 269.542 262.402 276.025 261.742 276.025ZM276.519 244.617C277.687 244.516 278.898 243.271 280.15 240.885C277.425 241.85 275.902 242.687 275.58 243.398C275.478 243.618 275.428 243.822 275.428 244.008C275.428 244.109 275.445 244.211 275.478 244.312C275.512 244.414 275.614 244.49 275.783 244.541C275.969 244.592 276.164 244.617 276.367 244.617H276.519ZM302.354 245.557H302.024C300.822 245.557 299.629 245.362 298.444 244.973C296.582 244.363 295.16 243.187 294.178 241.443C293.383 239.988 292.985 238.473 292.985 236.898V236.695C292.392 236.746 291.8 236.78 291.207 236.797C290.886 236.797 290.708 236.644 290.674 236.34C290.674 235.984 290.852 235.807 291.207 235.807C291.597 235.824 291.995 235.832 292.401 235.832H293.01C293.298 232.142 294.754 229.002 297.377 226.412C299.747 224.076 302.574 222.908 305.858 222.908C306.84 222.908 307.559 223.297 308.016 224.076C308.371 224.669 308.549 225.388 308.549 226.234C308.549 226.81 308.456 227.377 308.27 227.936C307.728 229.628 306.797 231.05 305.477 232.201C303.039 234.385 299.696 235.79 295.448 236.416V236.721C295.448 240.14 296.616 242.493 298.952 243.779C300.035 244.338 301.381 244.617 302.989 244.617C304.8 244.617 306.611 244.287 308.422 243.627C313.399 241.663 317.123 238.506 319.594 234.156C319.611 234.105 319.653 234.08 319.721 234.08C319.772 234.097 319.814 234.131 319.848 234.182L319.823 234.283C318.198 237.313 315.955 239.801 313.094 241.748C311.012 243.187 308.71 244.245 306.188 244.922C304.918 245.294 303.64 245.506 302.354 245.557ZM295.473 235.68C299.536 235.273 302.769 234.004 305.172 231.871C306.442 230.754 307.33 229.4 307.838 227.809C307.991 227.318 308.067 226.818 308.067 226.311C308.067 224.99 307.635 224.093 306.772 223.619C306.535 223.518 306.272 223.467 305.985 223.467C304.749 223.467 303.48 223.788 302.176 224.432C300.128 225.515 298.495 227.191 297.276 229.459C296.243 231.389 295.642 233.462 295.473 235.68ZM326.309 245.582C325.294 245.582 324.329 245.286 323.415 244.693C322.569 244.135 321.875 243.441 321.333 242.611C320.029 240.512 319.378 238.066 319.378 235.273C319.378 231.753 320.351 228.841 322.298 226.539C322.704 226.099 323.161 225.718 323.669 225.396C324.634 223.585 326.191 222.68 328.341 222.68C328.933 222.68 329.492 222.781 330.016 222.984C331.658 223.695 332.793 225.151 333.419 227.352C333.859 228.926 334.079 230.508 334.079 232.1C334.079 233.742 333.918 235.383 333.597 237.025C335.949 236.653 337.972 235.646 339.665 234.004C339.682 233.97 339.707 233.953 339.741 233.953C339.843 233.953 339.893 233.995 339.893 234.08C339.893 234.131 339.877 234.165 339.843 234.182C338.184 235.874 336.059 237 333.47 237.559C333.046 239.539 332.251 241.35 331.083 242.992C329.779 244.719 328.188 245.582 326.309 245.582ZM332.099 237.178C332.268 237.178 332.42 237.169 332.556 237.152C332.691 237.118 332.826 237.102 332.962 237.102C333.266 235.73 333.419 234.351 333.419 232.963C333.402 230.982 333.148 229.197 332.657 227.605C332.403 226.776 332.031 226.023 331.54 225.346C330.761 224.245 329.763 223.695 328.544 223.695C327.427 223.695 326.504 223.966 325.776 224.508C326.216 224.389 326.665 224.33 327.122 224.33C327.274 224.33 327.427 224.339 327.579 224.355C327.748 224.372 327.875 224.432 327.96 224.533C328.044 224.635 328.087 224.745 328.087 224.863C328.087 225.202 327.918 225.396 327.579 225.447C326.259 225.549 325.158 225.997 324.278 226.793C324.126 227.352 324.05 227.919 324.05 228.494C324.05 230.492 324.701 232.353 326.005 234.08C327.054 235.451 328.417 236.391 330.093 236.898C330.821 237.085 331.489 237.178 332.099 237.178ZM326.893 244.617C328.315 244.617 329.543 243.94 330.575 242.586C331.625 241.215 332.361 239.658 332.784 237.914C332.818 237.846 332.835 237.762 332.835 237.66H332.759C332.691 237.728 332.319 237.762 331.641 237.762C331.066 237.762 330.49 237.694 329.915 237.559C328.036 237.135 326.47 236.179 325.218 234.689C323.711 232.844 322.958 230.737 322.958 228.367C321.824 230.263 321.257 232.574 321.257 235.299C321.257 237.669 321.748 239.827 322.729 241.773C323.102 242.501 323.593 243.119 324.202 243.627C324.964 244.287 325.861 244.617 326.893 244.617ZM335.462 276.025C335.208 276.025 335.014 275.932 334.878 275.746C334.794 275.628 334.751 275.492 334.751 275.34C334.751 275.289 334.76 275.255 334.777 275.238C336.876 259.648 338.492 246.631 339.626 236.187C340.117 231.346 340.363 227.605 340.363 224.965L340.337 223.162C340.337 222.942 340.413 222.747 340.566 222.578C340.735 222.409 340.964 222.324 341.251 222.324C341.454 222.324 341.641 222.392 341.81 222.527C342.132 222.832 342.292 224.516 342.292 227.58C342.292 230.915 341.971 235.62 341.327 241.697C343.9 232.235 346.626 226.251 349.503 223.746C350.468 222.917 351.526 222.502 352.677 222.502C354.234 222.502 355.529 223.001 356.562 224C357.476 224.999 358.035 226.124 358.238 227.377C358.407 228.257 358.492 229.137 358.492 230.018C358.492 230.339 358.483 230.652 358.466 230.957C358.246 233.818 357.459 236.678 356.105 239.539C357.933 238.997 359.727 238.38 361.488 237.686C363.942 236.721 365.787 235.536 367.023 234.131C367.057 234.097 367.091 234.08 367.124 234.08C367.226 234.08 367.277 234.122 367.277 234.207C367.277 234.258 367.268 234.292 367.251 234.309C366.507 235.189 365.643 235.925 364.661 236.518C362.715 237.719 359.786 238.947 355.876 240.199L355.775 240.25C355.148 241.486 354.37 242.645 353.439 243.728C352.406 244.896 351.34 245.506 350.24 245.557C348.936 245.557 348.285 245.032 348.285 243.982C348.285 242.984 348.97 242.18 350.341 241.57C351.306 241.113 352.609 240.631 354.251 240.123C355.91 236.568 356.74 233.115 356.74 229.764C356.74 227.699 356.299 226.141 355.419 225.092C354.674 224.262 353.684 223.848 352.449 223.848C351.687 223.848 350.942 224.118 350.214 224.66C349.385 225.286 348.657 226.057 348.031 226.971C346.406 229.29 344.992 232.286 343.79 235.959C342.538 239.666 341.497 243.475 340.667 247.385C340.295 250.245 339.872 253.309 339.398 256.576C337.434 269.542 336.122 276.025 335.462 276.025ZM350.24 244.617C351.408 244.516 352.618 243.271 353.87 240.885C351.145 241.85 349.622 242.687 349.3 243.398C349.199 243.618 349.148 243.822 349.148 244.008C349.148 244.109 349.165 244.211 349.199 244.312C349.232 244.414 349.334 244.49 349.503 244.541C349.689 244.592 349.884 244.617 350.087 244.617H350.24ZM376.226 245.658C374.06 245.658 372.232 244.778 370.742 243.018C368.677 240.512 367.306 236.966 366.629 232.379C365.139 232.785 363.599 233.047 362.008 233.166C361.72 233.166 361.559 233.031 361.525 232.76C361.525 232.421 361.694 232.252 362.033 232.252C362.422 232.286 362.803 232.303 363.176 232.303C364.31 232.303 365.435 232.167 366.553 231.896C366.265 229.781 366.121 227.368 366.121 224.66C366.121 219.277 366.73 213.971 367.949 208.74C369.557 201.563 371.995 195.368 375.262 190.154C377.428 186.718 379.866 184.382 382.574 183.146C383.59 182.723 384.605 182.512 385.621 182.512C386.366 182.512 387.094 182.681 387.805 183.019C388.634 183.493 389.277 184.12 389.734 184.898C390.801 186.676 391.334 189.062 391.334 192.059C391.334 193.802 391.207 195.52 390.953 197.213C389.988 203.611 387.898 209.832 384.681 215.875C381.144 222.51 376.76 227.343 371.529 230.373C370.615 230.881 369.667 231.321 368.685 231.693C369.295 240.258 372.012 244.541 376.836 244.541C377.733 244.541 378.791 244.279 380.01 243.754C382.566 242.569 385.138 240.622 387.728 237.914C389.133 236.424 390.166 235.172 390.826 234.156C390.86 234.122 390.911 234.105 390.978 234.105C391.012 234.105 391.046 234.131 391.08 234.182L391.055 234.283C390.174 235.705 389.167 237.017 388.033 238.219C385.528 240.944 382.963 243.018 380.34 244.439C378.867 245.252 377.496 245.658 376.226 245.658ZM368.66 231.236C369.574 230.898 370.463 230.483 371.326 229.992C376.489 227.013 380.797 222.24 384.25 215.672C387.449 209.663 389.446 203.484 390.242 197.137C390.428 195.732 390.521 194.327 390.521 192.922C390.521 189.587 389.997 187.082 388.947 185.406C388.168 184.204 387.119 183.603 385.799 183.603C384.851 183.603 383.937 183.824 383.056 184.264C380.704 185.432 378.596 187.7 376.734 191.068C374.06 195.96 371.986 202.037 370.513 209.299C369.193 215.799 368.533 222.062 368.533 228.088C368.533 229.12 368.575 230.17 368.66 231.236ZM399.852 245.557H399.522C398.32 245.557 397.127 245.362 395.942 244.973C394.08 244.363 392.658 243.187 391.676 241.443C390.881 239.988 390.483 238.473 390.483 236.898V236.695C389.89 236.746 389.298 236.78 388.705 236.797C388.384 236.797 388.206 236.644 388.172 236.34C388.172 235.984 388.35 235.807 388.705 235.807C389.095 235.824 389.492 235.832 389.899 235.832H390.508C390.796 232.142 392.252 229.002 394.875 226.412C397.245 224.076 400.072 222.908 403.356 222.908C404.338 222.908 405.057 223.297 405.514 224.076C405.869 224.669 406.047 225.388 406.047 226.234C406.047 226.81 405.954 227.377 405.768 227.936C405.226 229.628 404.295 231.05 402.975 232.201C400.537 234.385 397.194 235.79 392.946 236.416V236.721C392.946 240.14 394.114 242.493 396.45 243.779C397.533 244.338 398.879 244.617 400.487 244.617C402.298 244.617 404.109 244.287 405.92 243.627C410.897 241.663 414.621 238.506 417.092 234.156C417.109 234.105 417.151 234.08 417.219 234.08C417.27 234.097 417.312 234.131 417.346 234.182L417.321 234.283C415.696 237.313 413.453 239.801 410.592 241.748C408.51 243.187 406.208 244.245 403.686 244.922C402.416 245.294 401.138 245.506 399.852 245.557ZM392.971 235.68C397.034 235.273 400.267 234.004 402.67 231.871C403.94 230.754 404.828 229.4 405.336 227.809C405.489 227.318 405.565 226.818 405.565 226.311C405.565 224.99 405.133 224.093 404.27 223.619C404.033 223.518 403.77 223.467 403.483 223.467C402.247 223.467 400.978 223.788 399.674 224.432C397.626 225.515 395.992 227.191 394.774 229.459C393.741 231.389 393.14 233.462 392.971 235.68Z" fill="white"/>
<path d="M84.3515 265.209C84.2669 265.209 84.1992 265.167 84.1484 265.082C83.7083 264.151 83.4375 263.195 83.3359 262.213C83.1328 260.757 83.0312 258.811 83.0312 256.373C83.0312 255.408 83.0481 254.443 83.082 253.478C83.3867 244.998 84.4869 233.454 86.3828 218.846L86.5859 217.475C81.7955 217.881 76.1334 219.057 69.5996 221.004L67.1113 221.715C61.7962 223.289 57.3444 224.381 53.7558 224.99C51.8092 238.498 50.8359 247.529 50.8359 252.082C50.8359 253.707 50.9713 254.782 51.2421 255.307L51.2675 255.434C51.2675 255.603 51.1829 255.687 51.0136 255.687C50.9121 255.687 50.8359 255.645 50.7851 255.561C50.5989 255.171 50.4804 254.79 50.4296 254.418V254.393C50.2942 253.614 50.2265 252.463 50.2265 250.939C50.2773 245.777 50.9882 237.203 52.3593 225.219C49.6849 225.659 47.1543 225.879 44.7676 225.879C43.9212 225.879 43.0749 225.853 42.2285 225.803C42.0762 225.803 42 225.718 42 225.549C42 225.413 42.0762 225.329 42.2285 225.295C45.7155 225.075 49.1517 224.559 52.5371 223.746C52.7063 222.206 53.2565 217.635 54.1875 210.035C55.7617 197.086 56.7942 188.047 57.2851 182.918C57.319 182.562 57.4544 182.283 57.6914 182.08C57.9283 181.877 58.1992 181.775 58.5039 181.775C58.9101 181.775 59.2402 181.919 59.4941 182.207C59.6803 182.427 59.7734 182.689 59.7734 182.994V183.172C59.1302 188.521 58.4023 193.844 57.5898 199.143C57.4713 199.853 56.9127 203.569 55.914 210.289C54.8138 217.669 54.1705 222.045 53.9843 223.416L55.7617 222.959C57.5898 222.468 62.0162 221.165 69.041 219.049C73.4759 217.678 78.0293 216.662 82.7011 216.002C84.0722 215.833 85.4433 215.723 86.8144 215.672C87.9147 207.462 89.4127 197.052 91.3086 184.441C91.9518 180.125 92.3157 177.747 92.4003 177.307C92.6204 175.851 92.8235 174.412 93.0097 172.99C93.0605 172.669 93.1959 172.423 93.416 172.254C93.636 172.085 93.873 172 94.1269 172C94.4993 172 94.804 172.144 95.041 172.432C95.1933 172.635 95.2695 172.863 95.2695 173.117V173.295C95.0494 174.751 94.8125 176.189 94.5586 177.611L93.3144 184.746C91.0462 198.203 89.3704 208.503 88.2871 215.646C91.1985 215.646 94.0169 215.968 96.7421 216.611C97.0299 216.679 97.1738 216.848 97.1738 217.119C97.1738 217.322 97.0892 217.475 96.9199 217.576C96.8352 217.644 96.7337 217.678 96.6152 217.678H96.539C94.5586 217.407 92.5781 217.271 90.5976 217.271C89.7343 217.271 88.8711 217.297 88.0078 217.348L87.9062 218.084C86.7721 225.21 85.7226 233.183 84.7578 242.002C84.0468 248.502 83.6914 253.775 83.6914 257.82V259.268C83.7421 261.756 84.0384 263.609 84.58 264.828L84.6054 264.98C84.6054 265.133 84.5208 265.209 84.3515 265.209ZM104.346 245.557H104.016C102.814 245.557 101.621 245.362 100.436 244.973C98.574 244.363 97.1521 243.187 96.1703 241.443C95.3748 239.988 94.977 238.473 94.977 236.898V236.695C94.3845 236.746 93.7921 236.78 93.1996 236.797C92.878 236.797 92.7003 236.644 92.6664 236.34C92.6664 235.984 92.8442 235.807 93.1996 235.807C93.589 235.824 93.9868 235.832 94.393 235.832H95.0024C95.2901 232.142 96.7459 229.002 99.3696 226.412C101.739 224.076 104.566 222.908 107.85 222.908C108.832 222.908 109.551 223.297 110.008 224.076C110.364 224.669 110.541 225.388 110.541 226.234C110.541 226.81 110.448 227.377 110.262 227.936C109.721 229.628 108.79 231.05 107.469 232.201C105.032 234.385 101.689 235.79 97.4399 236.416V236.721C97.4399 240.14 98.6078 242.493 100.944 243.779C102.027 244.338 103.373 244.617 104.981 244.617C106.792 244.617 108.603 244.287 110.415 243.627C115.391 241.663 119.115 238.506 121.586 234.156C121.603 234.105 121.646 234.08 121.713 234.08C121.764 234.097 121.806 234.131 121.84 234.182L121.815 234.283C120.19 237.313 117.947 239.801 115.086 241.748C113.004 243.187 110.702 244.245 108.18 244.922C106.911 245.294 105.633 245.506 104.346 245.557ZM97.4653 235.68C101.528 235.273 104.761 234.004 107.165 231.871C108.434 230.754 109.323 229.4 109.831 227.809C109.983 227.318 110.059 226.818 110.059 226.311C110.059 224.99 109.627 224.093 108.764 223.619C108.527 223.518 108.265 223.467 107.977 223.467C106.741 223.467 105.472 223.788 104.168 224.432C102.12 225.515 100.487 227.191 99.268 229.459C98.2355 231.389 97.6345 233.462 97.4653 235.68ZM130.714 245.658C128.547 245.658 126.719 244.778 125.229 243.018C123.164 240.512 121.793 236.966 121.116 232.379C119.627 232.785 118.086 233.047 116.495 233.166C116.207 233.166 116.047 233.031 116.013 232.76C116.013 232.421 116.182 232.252 116.52 232.252C116.91 232.286 117.291 232.303 117.663 232.303C118.797 232.303 119.923 232.167 121.04 231.896C120.752 229.781 120.608 227.368 120.608 224.66C120.608 219.277 121.218 213.971 122.436 208.74C124.045 201.563 126.482 195.368 129.749 190.154C131.916 186.718 134.353 184.382 137.061 183.146C138.077 182.723 139.093 182.512 140.108 182.512C140.853 182.512 141.581 182.681 142.292 183.019C143.121 183.493 143.765 184.12 144.222 184.898C145.288 186.676 145.821 189.062 145.821 192.059C145.821 193.802 145.694 195.52 145.44 197.213C144.476 203.611 142.385 209.832 139.169 215.875C135.631 222.51 131.247 227.343 126.017 230.373C125.103 230.881 124.155 231.321 123.173 231.693C123.782 240.258 126.499 244.541 131.323 244.541C132.22 244.541 133.278 244.279 134.497 243.754C137.053 242.569 139.626 240.622 142.216 237.914C143.621 236.424 144.653 235.172 145.313 234.156C145.347 234.122 145.398 234.105 145.466 234.105C145.5 234.105 145.534 234.131 145.567 234.182L145.542 234.283C144.662 235.705 143.655 237.017 142.521 238.219C140.015 240.944 137.451 243.018 134.827 244.439C133.354 245.252 131.983 245.658 130.714 245.658ZM123.147 231.236C124.061 230.898 124.95 230.483 125.813 229.992C130.976 227.013 135.284 222.24 138.737 215.672C141.937 209.663 143.934 203.484 144.73 197.137C144.916 195.732 145.009 194.327 145.009 192.922C145.009 189.587 144.484 187.082 143.435 185.406C142.656 184.204 141.606 183.603 140.286 183.603C139.338 183.603 138.424 183.824 137.544 184.264C135.191 185.432 133.084 187.7 131.222 191.068C128.547 195.96 126.474 202.037 125.001 209.299C123.681 215.799 123.02 222.062 123.02 228.088C123.02 229.12 123.063 230.17 123.147 231.236ZM140.857 276.025C140.603 276.025 140.408 275.932 140.273 275.746C140.188 275.628 140.146 275.492 140.146 275.34C140.146 275.289 140.154 275.255 140.171 275.238C142.27 259.648 143.887 246.631 145.021 236.187C145.512 231.346 145.757 227.605 145.757 224.965L145.732 223.162C145.732 222.942 145.808 222.747 145.96 222.578C146.13 222.409 146.358 222.324 146.646 222.324C146.849 222.324 147.035 222.392 147.205 222.527C147.526 222.832 147.687 224.516 147.687 227.58C147.687 230.915 147.365 235.62 146.722 241.697C149.295 232.235 152.02 226.251 154.898 223.746C155.863 222.917 156.921 222.502 158.072 222.502C159.629 222.502 160.924 223.001 161.957 224C162.871 224.999 163.429 226.124 163.632 227.377C163.802 228.257 163.886 229.137 163.886 230.018C163.886 230.339 163.878 230.652 163.861 230.957C163.641 233.818 162.854 236.678 161.5 239.539C163.328 238.997 165.122 238.38 166.882 237.686C169.337 236.721 171.182 235.536 172.417 234.131C172.451 234.097 172.485 234.08 172.519 234.08C172.621 234.08 172.671 234.122 172.671 234.207C172.671 234.258 172.663 234.292 172.646 234.309C171.901 235.189 171.038 235.925 170.056 236.518C168.11 237.719 165.181 238.947 161.271 240.199L161.169 240.25C160.543 241.486 159.764 242.645 158.833 243.728C157.801 244.896 156.735 245.506 155.634 245.557C154.331 245.557 153.679 245.032 153.679 243.982C153.679 242.984 154.365 242.18 155.736 241.57C156.701 241.113 158.004 240.631 159.646 240.123C161.305 236.568 162.134 233.115 162.134 229.764C162.134 227.699 161.694 226.141 160.814 225.092C160.069 224.262 159.079 223.848 157.843 223.848C157.082 223.848 156.337 224.118 155.609 224.66C154.779 225.286 154.052 226.057 153.425 226.971C151.8 229.29 150.387 232.286 149.185 235.959C147.932 239.666 146.891 243.475 146.062 247.385C145.69 250.245 145.266 253.309 144.792 256.576C142.829 269.542 141.517 276.025 140.857 276.025ZM155.634 244.617C156.802 244.516 158.013 243.271 159.265 240.885C156.54 241.85 155.016 242.687 154.695 243.398C154.593 243.618 154.542 243.822 154.542 244.008C154.542 244.109 154.559 244.211 154.593 244.312C154.627 244.414 154.729 244.49 154.898 244.541C155.084 244.592 155.279 244.617 155.482 244.617H155.634ZM178.574 245.734C177.846 245.734 177.135 245.59 176.441 245.303C175.493 244.88 174.74 244.245 174.182 243.398C173.166 241.74 172.599 240.005 172.48 238.193C172.396 237.313 172.353 236.433 172.353 235.553C172.353 234.689 172.396 233.826 172.48 232.963C172.785 229.527 173.496 226.184 174.613 222.934C174.766 222.493 175.07 222.273 175.527 222.273C175.629 222.273 175.739 222.29 175.857 222.324C176.281 222.477 176.492 222.773 176.492 223.213V223.416C175.849 226.683 175.35 229.941 174.994 233.191C174.842 234.461 174.766 235.73 174.766 237C174.766 239.37 175.087 241.206 175.73 242.51C176.374 243.796 177.525 244.456 179.184 244.49C180.724 244.406 182.112 243.762 183.348 242.561C185.582 240.394 187.309 237.575 188.527 234.105C188.527 234.072 188.561 234.055 188.629 234.055C188.663 234.089 188.68 234.122 188.68 234.156C186.75 239.454 184.465 242.975 181.824 244.719C180.809 245.396 179.725 245.734 178.574 245.734ZM176.365 217.83C176.061 217.83 175.798 217.72 175.578 217.5C175.358 217.28 175.248 217.018 175.248 216.713C175.248 216.408 175.358 216.146 175.578 215.926C175.798 215.706 176.061 215.596 176.365 215.596C176.67 215.596 176.932 215.706 177.152 215.926C177.372 216.146 177.482 216.408 177.482 216.713C177.482 217.018 177.372 217.28 177.152 217.5C176.932 217.72 176.67 217.83 176.365 217.83ZM205.221 245.684C203.63 245.684 202.834 244.304 202.834 241.545C202.834 239.784 203.054 237.542 203.495 234.816C203.495 234.681 203.528 234.461 203.596 234.156C204.206 230.432 204.519 227.851 204.536 226.412C204.536 225.143 204.129 224.305 203.317 223.898C202.911 223.712 202.555 223.619 202.25 223.619C201.066 223.619 199.974 224.085 198.975 225.016C197.147 226.742 195.53 229.561 194.125 233.471C193.059 236.416 192.179 239.488 191.485 242.687L190.926 245.379C190.774 245.531 190.554 245.607 190.266 245.607C190.097 245.523 190.012 245.472 190.012 245.455C190.012 245.421 189.995 245.396 189.961 245.379C188.776 244.042 188.184 241.553 188.184 237.914C188.184 237.135 188.218 236.357 188.286 235.578C188.675 231.363 189.614 227.165 191.104 222.984C191.222 222.646 191.451 222.477 191.79 222.477C191.874 222.477 191.959 222.493 192.043 222.527C192.382 222.646 192.551 222.874 192.551 223.213C192.551 223.348 192.433 223.958 192.196 225.041C191.129 230.018 190.368 234.986 189.911 239.945C189.877 240.284 189.86 240.614 189.86 240.936C189.86 241.968 190.004 242.958 190.291 243.906C190.342 244.025 190.418 244.16 190.52 244.312C190.977 241.993 191.375 240.14 191.713 238.752C192.746 234.639 194.015 231.186 195.522 228.393C197.553 224.686 199.838 222.832 202.377 222.832C203.512 222.832 204.375 223.238 204.967 224.051C205.847 225.32 206.288 227.115 206.288 229.434C206.288 230.669 206.068 232.514 205.627 234.969L204.815 239.107C204.578 240.309 204.459 241.452 204.459 242.535C204.459 243.195 204.519 243.661 204.637 243.932C204.773 244.304 205.12 244.49 205.678 244.49C206.762 244.422 208.04 243.424 209.512 241.494C211.103 239.429 212.508 236.983 213.727 234.156C213.744 234.122 213.761 234.105 213.778 234.105C213.812 234.089 213.837 234.08 213.854 234.08C213.939 234.08 213.981 234.097 213.981 234.131C213.998 234.165 214.006 234.19 214.006 234.207L213.981 234.258C212.898 236.915 211.577 239.446 210.02 241.85C209.258 243.085 208.251 244.152 206.999 245.049C206.406 245.472 205.814 245.684 205.221 245.684ZM221.864 275.975H221.56C219.342 275.975 217.455 275.306 215.897 273.969C213.917 272.158 212.927 269.957 212.927 267.367C212.927 265.776 213.257 264.109 213.917 262.365C215.17 259.098 217.387 255.814 220.569 252.514C224.953 248.079 230.226 244.042 236.388 240.402L236.438 237.482C236.438 236.518 236.421 235.561 236.388 234.613C236.286 232.667 235.998 231.363 235.524 230.703C235.423 230.568 235.338 230.5 235.27 230.5C234.83 230.5 234.339 230.754 233.798 231.262C233.798 232.616 234.043 233.716 234.534 234.562C234.585 234.664 234.61 234.766 234.61 234.867C234.61 235.036 234.543 235.155 234.407 235.223C234.289 235.29 234.187 235.324 234.102 235.324C233.933 235.324 233.789 235.24 233.671 235.07C233.298 234.173 233.112 233.284 233.112 232.404L233.138 231.973C232.461 232.785 231.479 234.139 230.192 236.035C229.092 237.66 228.246 238.862 227.653 239.641C224.793 243.669 221.56 245.684 217.954 245.684C216.668 245.684 215.517 245.286 214.501 244.49C213.214 243.271 212.571 241.587 212.571 239.437C212.571 238.049 212.817 236.636 213.308 235.197C214.696 231.169 217.099 227.936 220.518 225.498C222.956 223.771 225.537 222.908 228.263 222.908C230.666 222.908 232.308 223.484 233.188 224.635C233.696 225.43 233.95 226.556 233.95 228.012L233.823 230.221C234.297 229.848 234.771 229.637 235.245 229.586C236.041 229.586 236.658 230.212 237.099 231.465C237.826 233.479 238.275 236.069 238.444 239.234C242.845 236.712 246.798 234.969 250.302 234.004C250.386 234.004 250.446 234.038 250.479 234.105C250.479 234.207 250.446 234.258 250.378 234.258C246.959 235.256 242.989 237.11 238.47 239.818V240.047C238.487 240.165 238.495 240.555 238.495 241.215C238.495 244.905 238.182 248.578 237.556 252.234C236.946 256.161 235.948 260.004 234.56 263.762C232.816 268.247 230.565 271.607 227.806 273.842C225.977 275.23 223.997 275.941 221.864 275.975ZM221.28 274.324C223.295 274.324 225.089 273.673 226.663 272.369C229.067 270.406 231.03 267.291 232.554 263.025C234.805 256.712 236.066 249.399 236.337 241.088C230.311 244.88 225.283 248.925 221.255 253.225C216.651 258.184 214.332 262.831 214.298 267.164C214.298 267.519 214.323 267.875 214.374 268.23C214.662 270.092 215.491 271.616 216.862 272.801C218.149 273.816 219.621 274.324 221.28 274.324ZM218.919 244.49C220.29 244.49 221.653 244.059 223.007 243.195C224.598 242.129 225.994 240.825 227.196 239.285C228.33 237.897 229.448 236.306 230.548 234.512C231.377 233.242 232.249 232.023 233.163 230.855C233.18 230.839 233.231 230.365 233.315 229.434C233.4 228.706 233.442 228.122 233.442 227.682C233.442 226.429 233.231 225.506 232.808 224.914C232.097 223.949 230.886 223.467 229.177 223.467H228.72C227.873 223.467 227.044 223.577 226.231 223.797C223.591 224.592 221.323 226.192 219.427 228.596C217.666 230.695 216.321 233.124 215.39 235.883C214.899 237.288 214.653 238.667 214.653 240.021C214.653 240.394 214.67 240.766 214.704 241.139C214.806 241.985 215.11 242.704 215.618 243.297C216.363 244.092 217.463 244.49 218.919 244.49ZM262.742 276.025C262.488 276.025 262.294 275.932 262.158 275.746C262.073 275.628 262.031 275.492 262.031 275.34C262.031 275.289 262.04 275.255 262.057 275.238C264.156 259.648 265.772 246.631 266.906 236.187C267.397 231.346 267.642 227.605 267.642 224.965L267.617 223.162C267.617 222.942 267.693 222.747 267.846 222.578C268.015 222.409 268.243 222.324 268.531 222.324C268.734 222.324 268.92 222.392 269.09 222.527C269.411 222.832 269.572 224.516 269.572 227.58C269.572 230.915 269.251 235.62 268.607 241.697C271.18 232.235 273.906 226.251 276.783 223.746C277.748 222.917 278.806 222.502 279.957 222.502C281.514 222.502 282.809 223.001 283.842 224C284.756 224.999 285.314 226.124 285.517 227.377C285.687 228.257 285.771 229.137 285.771 230.018C285.771 230.339 285.763 230.652 285.746 230.957C285.526 233.818 284.739 236.678 283.385 239.539C285.213 238.997 287.007 238.38 288.767 237.686C291.222 236.721 293.067 235.536 294.303 234.131C294.336 234.097 294.37 234.08 294.404 234.08C294.506 234.08 294.557 234.122 294.557 234.207C294.557 234.258 294.548 234.292 294.531 234.309C293.786 235.189 292.923 235.925 291.941 236.518C289.995 237.719 287.066 238.947 283.156 240.199L283.055 240.25C282.428 241.486 281.65 242.645 280.719 243.728C279.686 244.896 278.62 245.506 277.519 245.557C276.216 245.557 275.564 245.032 275.564 243.982C275.564 242.984 276.25 242.18 277.621 241.57C278.586 241.113 279.889 240.631 281.531 240.123C283.19 236.568 284.019 233.115 284.019 229.764C284.019 227.699 283.579 226.141 282.699 225.092C281.954 224.262 280.964 223.848 279.728 223.848C278.967 223.848 278.222 224.118 277.494 224.66C276.665 225.286 275.937 226.057 275.31 226.971C273.685 229.29 272.272 232.286 271.07 235.959C269.818 239.666 268.777 243.475 267.947 247.385C267.575 250.245 267.152 253.309 266.678 256.576C264.714 269.542 263.402 276.025 262.742 276.025ZM277.519 244.617C278.687 244.516 279.898 243.271 281.15 240.885C278.425 241.85 276.902 242.687 276.58 243.398C276.478 243.618 276.428 243.822 276.428 244.008C276.428 244.109 276.445 244.211 276.478 244.312C276.512 244.414 276.614 244.49 276.783 244.541C276.969 244.592 277.164 244.617 277.367 244.617H277.519ZM303.354 245.557H303.024C301.822 245.557 300.629 245.362 299.444 244.973C297.582 244.363 296.16 243.187 295.178 241.443C294.383 239.988 293.985 238.473 293.985 236.898V236.695C293.392 236.746 292.8 236.78 292.207 236.797C291.886 236.797 291.708 236.644 291.674 236.34C291.674 235.984 291.852 235.807 292.207 235.807C292.597 235.824 292.995 235.832 293.401 235.832H294.01C294.298 232.142 295.754 229.002 298.377 226.412C300.747 224.076 303.574 222.908 306.858 222.908C307.84 222.908 308.559 223.297 309.016 224.076C309.371 224.669 309.549 225.388 309.549 226.234C309.549 226.81 309.456 227.377 309.27 227.936C308.728 229.628 307.797 231.05 306.477 232.201C304.039 234.385 300.696 235.79 296.448 236.416V236.721C296.448 240.14 297.616 242.493 299.952 243.779C301.035 244.338 302.381 244.617 303.989 244.617C305.8 244.617 307.611 244.287 309.422 243.627C314.399 241.663 318.123 238.506 320.594 234.156C320.611 234.105 320.653 234.08 320.721 234.08C320.772 234.097 320.814 234.131 320.848 234.182L320.823 234.283C319.198 237.313 316.955 239.801 314.094 241.748C312.012 243.187 309.71 244.245 307.188 244.922C305.918 245.294 304.64 245.506 303.354 245.557ZM296.473 235.68C300.536 235.273 303.769 234.004 306.172 231.871C307.442 230.754 308.33 229.4 308.838 227.809C308.991 227.318 309.067 226.818 309.067 226.311C309.067 224.99 308.635 224.093 307.772 223.619C307.535 223.518 307.272 223.467 306.985 223.467C305.749 223.467 304.48 223.788 303.176 224.432C301.128 225.515 299.495 227.191 298.276 229.459C297.243 231.389 296.642 233.462 296.473 235.68ZM327.309 245.582C326.294 245.582 325.329 245.286 324.415 244.693C323.569 244.135 322.875 243.441 322.333 242.611C321.029 240.512 320.378 238.066 320.378 235.273C320.378 231.753 321.351 228.841 323.298 226.539C323.704 226.099 324.161 225.718 324.669 225.396C325.634 223.585 327.191 222.68 329.341 222.68C329.933 222.68 330.492 222.781 331.016 222.984C332.658 223.695 333.793 225.151 334.419 227.352C334.859 228.926 335.079 230.508 335.079 232.1C335.079 233.742 334.918 235.383 334.597 237.025C336.949 236.653 338.972 235.646 340.665 234.004C340.682 233.97 340.707 233.953 340.741 233.953C340.843 233.953 340.893 233.995 340.893 234.08C340.893 234.131 340.877 234.165 340.843 234.182C339.184 235.874 337.059 237 334.47 237.559C334.046 239.539 333.251 241.35 332.083 242.992C330.779 244.719 329.188 245.582 327.309 245.582ZM333.099 237.178C333.268 237.178 333.42 237.169 333.556 237.152C333.691 237.118 333.826 237.102 333.962 237.102C334.266 235.73 334.419 234.351 334.419 232.963C334.402 230.982 334.148 229.197 333.657 227.605C333.403 226.776 333.031 226.023 332.54 225.346C331.761 224.245 330.763 223.695 329.544 223.695C328.427 223.695 327.504 223.966 326.776 224.508C327.216 224.389 327.665 224.33 328.122 224.33C328.274 224.33 328.427 224.339 328.579 224.355C328.748 224.372 328.875 224.432 328.96 224.533C329.044 224.635 329.087 224.745 329.087 224.863C329.087 225.202 328.918 225.396 328.579 225.447C327.259 225.549 326.158 225.997 325.278 226.793C325.126 227.352 325.05 227.919 325.05 228.494C325.05 230.492 325.701 232.353 327.005 234.08C328.054 235.451 329.417 236.391 331.093 236.898C331.821 237.085 332.489 237.178 333.099 237.178ZM327.893 244.617C329.315 244.617 330.543 243.94 331.575 242.586C332.625 241.215 333.361 239.658 333.784 237.914C333.818 237.846 333.835 237.762 333.835 237.66H333.759C333.691 237.728 333.319 237.762 332.641 237.762C332.066 237.762 331.49 237.694 330.915 237.559C329.036 237.135 327.47 236.179 326.218 234.689C324.711 232.844 323.958 230.737 323.958 228.367C322.824 230.263 322.257 232.574 322.257 235.299C322.257 237.669 322.748 239.827 323.729 241.773C324.102 242.501 324.593 243.119 325.202 243.627C325.964 244.287 326.861 244.617 327.893 244.617ZM336.462 276.025C336.208 276.025 336.014 275.932 335.878 275.746C335.794 275.628 335.751 275.492 335.751 275.34C335.751 275.289 335.76 275.255 335.777 275.238C337.876 259.648 339.492 246.631 340.626 236.187C341.117 231.346 341.363 227.605 341.363 224.965L341.337 223.162C341.337 222.942 341.413 222.747 341.566 222.578C341.735 222.409 341.964 222.324 342.251 222.324C342.454 222.324 342.641 222.392 342.81 222.527C343.132 222.832 343.292 224.516 343.292 227.58C343.292 230.915 342.971 235.62 342.327 241.697C344.9 232.235 347.626 226.251 350.503 223.746C351.468 222.917 352.526 222.502 353.677 222.502C355.234 222.502 356.529 223.001 357.562 224C358.476 224.999 359.035 226.124 359.238 227.377C359.407 228.257 359.492 229.137 359.492 230.018C359.492 230.339 359.483 230.652 359.466 230.957C359.246 233.818 358.459 236.678 357.105 239.539C358.933 238.997 360.727 238.38 362.488 237.686C364.942 236.721 366.787 235.536 368.023 234.131C368.057 234.097 368.091 234.08 368.124 234.08C368.226 234.08 368.277 234.122 368.277 234.207C368.277 234.258 368.268 234.292 368.251 234.309C367.507 235.189 366.643 235.925 365.661 236.518C363.715 237.719 360.786 238.947 356.876 240.199L356.775 240.25C356.148 241.486 355.37 242.645 354.439 243.728C353.406 244.896 352.34 245.506 351.24 245.557C349.936 245.557 349.285 245.032 349.285 243.982C349.285 242.984 349.97 242.18 351.341 241.57C352.306 241.113 353.609 240.631 355.251 240.123C356.91 236.568 357.74 233.115 357.74 229.764C357.74 227.699 357.299 226.141 356.419 225.092C355.674 224.262 354.684 223.848 353.449 223.848C352.687 223.848 351.942 224.118 351.214 224.66C350.385 225.286 349.657 226.057 349.031 226.971C347.406 229.29 345.992 232.286 344.79 235.959C343.538 239.666 342.497 243.475 341.667 247.385C341.295 250.245 340.872 253.309 340.398 256.576C338.434 269.542 337.122 276.025 336.462 276.025ZM351.24 244.617C352.408 244.516 353.618 243.271 354.87 240.885C352.145 241.85 350.622 242.687 350.3 243.398C350.199 243.618 350.148 243.822 350.148 244.008C350.148 244.109 350.165 244.211 350.199 244.312C350.232 244.414 350.334 244.49 350.503 244.541C350.689 244.592 350.884 244.617 351.087 244.617H351.24ZM377.226 245.658C375.06 245.658 373.232 244.778 371.742 243.018C369.677 240.512 368.306 236.966 367.629 232.379C366.139 232.785 364.599 233.047 363.008 233.166C362.72 233.166 362.559 233.031 362.525 232.76C362.525 232.421 362.694 232.252 363.033 232.252C363.422 232.286 363.803 232.303 364.176 232.303C365.31 232.303 366.435 232.167 367.553 231.896C367.265 229.781 367.121 227.368 367.121 224.66C367.121 219.277 367.73 213.971 368.949 208.74C370.557 201.563 372.995 195.368 376.262 190.154C378.428 186.718 380.866 184.382 383.574 183.146C384.59 182.723 385.605 182.512 386.621 182.512C387.366 182.512 388.094 182.681 388.805 183.019C389.634 183.493 390.277 184.12 390.734 184.898C391.801 186.676 392.334 189.062 392.334 192.059C392.334 193.802 392.207 195.52 391.953 197.213C390.988 203.611 388.898 209.832 385.681 215.875C382.144 222.51 377.76 227.343 372.529 230.373C371.615 230.881 370.667 231.321 369.685 231.693C370.295 240.258 373.012 244.541 377.836 244.541C378.733 244.541 379.791 244.279 381.01 243.754C383.566 242.569 386.138 240.622 388.728 237.914C390.133 236.424 391.166 235.172 391.826 234.156C391.86 234.122 391.911 234.105 391.978 234.105C392.012 234.105 392.046 234.131 392.08 234.182L392.055 234.283C391.174 235.705 390.167 237.017 389.033 238.219C386.528 240.944 383.963 243.018 381.34 244.439C379.867 245.252 378.496 245.658 377.226 245.658ZM369.66 231.236C370.574 230.898 371.463 230.483 372.326 229.992C377.489 227.013 381.797 222.24 385.25 215.672C388.449 209.663 390.446 203.484 391.242 197.137C391.428 195.732 391.521 194.327 391.521 192.922C391.521 189.587 390.997 187.082 389.947 185.406C389.168 184.204 388.119 183.603 386.799 183.603C385.851 183.603 384.937 183.824 384.056 184.264C381.704 185.432 379.596 187.7 377.734 191.068C375.06 195.96 372.986 202.037 371.513 209.299C370.193 215.799 369.533 222.062 369.533 228.088C369.533 229.12 369.575 230.17 369.66 231.236ZM400.852 245.557H400.522C399.32 245.557 398.127 245.362 396.942 244.973C395.08 244.363 393.658 243.187 392.676 241.443C391.881 239.988 391.483 238.473 391.483 236.898V236.695C390.89 236.746 390.298 236.78 389.705 236.797C389.384 236.797 389.206 236.644 389.172 236.34C389.172 235.984 389.35 235.807 389.705 235.807C390.095 235.824 390.492 235.832 390.899 235.832H391.508C391.796 232.142 393.252 229.002 395.875 226.412C398.245 224.076 401.072 222.908 404.356 222.908C405.338 222.908 406.057 223.297 406.514 224.076C406.869 224.669 407.047 225.388 407.047 226.234C407.047 226.81 406.954 227.377 406.768 227.936C406.226 229.628 405.295 231.05 403.975 232.201C401.537 234.385 398.194 235.79 393.946 236.416V236.721C393.946 240.14 395.114 242.493 397.45 243.779C398.533 244.338 399.879 244.617 401.487 244.617C403.298 244.617 405.109 244.287 406.92 243.627C411.897 241.663 415.621 238.506 418.092 234.156C418.109 234.105 418.151 234.08 418.219 234.08C418.27 234.097 418.312 234.131 418.346 234.182L418.321 234.283C416.696 237.313 414.453 239.801 411.592 241.748C409.51 243.187 407.208 244.245 404.686 244.922C403.416 245.294 402.138 245.506 400.852 245.557ZM393.971 235.68C398.034 235.273 401.267 234.004 403.67 231.871C404.94 230.754 405.828 229.4 406.336 227.809C406.489 227.318 406.565 226.818 406.565 226.311C406.565 224.99 406.133 224.093 405.27 223.619C405.033 223.518 404.77 223.467 404.483 223.467C403.247 223.467 401.978 223.788 400.674 224.432C398.626 225.515 396.992 227.191 395.774 229.459C394.741 231.389 394.14 233.462 393.971 235.68Z" fill="white"/>
<path fill-rule="evenodd" clip-rule="evenodd" d="M469.014 40.5863C465.379 38.0717 461.264 38.7725 458.503 41.1099C455.75 43.4405 454.271 47.453 455.838 51.588C456.368 52.9876 457.078 54.345 458.035 55.5547C460.086 58.1475 464.477 63.2551 469.222 65.8481C469.417 65.955 469.57 66.004 469.699 65.9997C469.828 66.004 469.981 65.955 470.177 65.8481C474.921 63.2551 479.312 58.1475 481.363 55.5547C482.32 54.345 483.03 52.9876 483.561 51.588C485.127 47.453 483.648 43.4405 480.895 41.1099C478.134 38.7725 474.019 38.0717 470.385 40.5863C470.139 40.7558 469.909 40.918 469.699 41.0698C469.489 40.918 469.259 40.7558 469.014 40.5863ZM469.699 44.5303C469.829 44.3981 469.958 44.2643 470.087 44.1305C470.356 43.8507 470.626 43.5709 470.909 43.3053C471.156 43.0733 471.452 42.8163 471.746 42.6133C474.38 40.7906 477.311 41.2699 479.347 42.9938C481.392 44.7245 482.462 47.6547 481.305 50.7074C480.845 51.9214 480.249 53.0452 479.479 54.0188C477.545 56.4635 473.733 60.8605 469.699 63.3031C465.665 60.8605 461.853 56.4635 459.919 54.0188C459.149 53.0452 458.553 51.9214 458.093 50.7074C456.937 47.6547 458.007 44.7245 460.051 42.9938C462.088 41.2699 465.018 40.7906 467.653 42.6133C467.799 42.7147 467.935 42.8094 468.058 42.8971C468.691 43.3455 469.225 43.9125 469.699 44.5303Z" fill="white"/>
<path d="M594.199 43C594.752 43 595.199 43.4477 595.199 44V45H599.199V44C599.199 43.4477 599.647 43 600.199 43C600.752 43 601.199 43.4477 601.199 44V45H604.199C605.304 45 606.199 45.8954 606.199 47V60C606.199 61.1046 605.304 62 604.199 62H590.199C589.095 62 588.199 61.1046 588.199 60V47C588.199 45.8954 589.095 45 590.199 45H593.199V44C593.199 43.4477 593.647 43 594.199 43ZM593.199 47H590.199V50H604.199V47H601.199V48C601.199 48.5523 600.752 49 600.199 49C599.647 49 599.199 48.5523 599.199 48V47H595.199V48C595.199 48.5523 594.752 49 594.199 49C593.647 49 593.199 48.5523 593.199 48V47ZM604.199 52H590.199V60H604.199V52Z" fill="#0D0D0D"/>
<path d="M524.701 41.5021C525.371 40.8326 526.456 40.8326 527.126 41.5021L536.199 50.5756L545.273 41.5021C545.942 40.8326 547.028 40.8326 547.697 41.5021C548.367 42.1716 548.367 43.257 547.697 43.9265L538.624 53L547.697 62.0735C548.367 62.743 548.367 63.8284 547.697 64.4979C547.028 65.1674 545.942 65.1674 545.273 64.4979L536.199 55.4244L527.126 64.4979C526.456 65.1674 525.371 65.1674 524.701 64.4979C524.032 63.8284 524.032 62.743 524.701 62.0735L533.775 53L524.701 43.9265C524.032 43.257 524.032 42.1716 524.701 41.5021Z" fill="#0D0D0D"/>
<path d="M661.699 42C659.142 42.0079 656.672 42.9166 654.736 44.562C653.252 45.822 652.176 47.4638 651.899 49.1114C648.652 49.8177 646.199 52.605 646.199 55.9707C646.199 59.8805 649.508 63 653.525 63H670.78C674.297 63 677.199 60.27 677.199 56.8394C677.199 53.7161 674.793 51.1713 671.708 50.7417C671.238 45.8163 666.911 42 661.699 42ZM666.26 51.8242C666.35 51.9129 666.422 52.0183 666.47 52.1342C666.519 52.2502 666.544 52.3745 666.544 52.5C666.544 52.6255 666.519 52.7498 666.47 52.8658C666.422 52.9817 666.35 53.0871 666.26 53.1758C666.17 53.2646 666.063 53.335 665.945 53.383C665.828 53.431 665.702 53.4558 665.574 53.4558C665.447 53.4558 665.321 53.431 665.203 53.383C665.085 53.335 664.978 53.2646 664.888 53.1758L662.668 50.9861V58.2273C662.668 58.4804 662.566 58.7232 662.384 58.9022C662.203 59.0813 661.956 59.1818 661.699 59.1818C661.442 59.1818 661.196 59.0813 661.014 58.9022C660.833 58.7232 660.73 58.4804 660.73 58.2273V50.9861L658.51 53.1758C658.328 53.3551 658.081 53.4558 657.824 53.4558C657.567 53.4558 657.32 53.3551 657.138 53.1758C656.956 52.9966 656.854 52.7535 656.854 52.5C656.854 52.2465 656.956 52.0034 657.138 51.8242L661.013 48.006C661.103 47.9171 661.21 47.8466 661.328 47.7985C661.446 47.7503 661.572 47.7256 661.699 47.7256C661.827 47.7256 661.953 47.7503 662.071 47.7985C662.188 47.8466 662.295 47.9171 662.385 48.006L666.26 51.8242Z" fill="black" fill-opacity="0.3"/>
<path d="M104 49L112 57L120 49" stroke="black" stroke-width="2" stroke-linecap="round" stroke-linejoin="round"/>
</svg>
