<svg width="107" height="47" viewBox="0 0 107 47" fill="none" xmlns="http://www.w3.org/2000/svg">
<path d="M16.9176 10.6562C16.4318 6.625 13.3807 4.30682 9.34091 4.30682C4.73011 4.30682 1.21023 7.5625 1.21023 13.2727C1.21023 18.9659 4.67045 22.2386 9.34091 22.2386C13.8153 22.2386 16.517 19.2642 16.9176 16.0511L13.1847 16.0341C12.8352 17.9006 11.3693 18.9744 9.40057 18.9744C6.75 18.9744 4.9517 17.0057 4.9517 13.2727C4.9517 9.64204 6.72443 7.57102 9.42614 7.57102C11.446 7.57102 12.9034 8.73864 13.1847 10.6562H16.9176ZM22.2443 22L23.5398 18.0199H29.8381L31.1335 22H35.0881L29.071 4.54545H24.3153L18.2898 22H22.2443ZM24.4773 15.1392L26.625 8.53409H26.7614L28.9091 15.1392H24.4773ZM37.1889 22H40.8793V15.8125H43.5724L46.8793 22H50.9531L47.2457 15.2159C49.2315 14.3636 50.331 12.6335 50.331 10.2472C50.331 6.77841 48.0384 4.54545 44.0753 4.54545H37.1889V22ZM40.8793 12.8466V7.5625H43.3679C45.4986 7.5625 46.5298 8.50852 46.5298 10.2472C46.5298 11.9773 45.4986 12.8466 43.3849 12.8466H40.8793ZM52.9389 22H64.7344V18.9574H56.6293V14.7898H64.0952V11.7472H56.6293V7.58807H64.7003V4.54545H52.9389V22ZM5.05227 42C8.50909 42 10.653 39.8672 10.653 36.3217C10.653 32.7818 8.50909 30.6545 5.04673 30.6545H0.858665V42H5.05227ZM3.60085 39.6622V32.9923H4.90824C6.85824 32.9923 7.90526 33.8787 7.90526 36.3217C7.90526 38.7759 6.85824 39.6622 4.94702 39.6622H3.60085ZM22.9624 36.3273C22.9624 32.5768 20.5913 30.4994 17.5445 30.4994C14.4865 30.4994 12.1321 32.5768 12.1321 36.3273C12.1321 40.0611 14.4865 42.1551 17.5445 42.1551C20.5913 42.1551 22.9624 40.0777 22.9624 36.3273ZM20.1592 36.3273C20.1592 38.5487 19.1842 39.7509 17.5445 39.7509C15.9102 39.7509 14.9297 38.5487 14.9297 36.3273C14.9297 34.1058 15.9102 32.9037 17.5445 32.9037C19.1842 32.9037 20.1592 34.1058 20.1592 36.3273ZM34.2192 30.6545H31.4825V37.1915H31.3884L26.9233 30.6545H24.5634V42H27.3055V35.452H27.3776L31.8925 42H34.2192V30.6545ZM38.3976 42L39.1454 39.6179H43.062L43.8099 42H46.7571L42.9291 30.6545H39.2784L35.4504 42H38.3976ZM39.7991 37.5349L41.0566 33.5131H41.1453L42.4083 37.5349H39.7991ZM46.1906 32.8815H49.6364V42H52.3398V32.8815H55.78V30.6545H46.1906V32.8815ZM57.1192 42H65.03V39.773H59.8614V37.4408H64.6256V35.2082H59.8614V32.8815H65.03V30.6545H57.1192V42Z" fill="#253987"/>
<path d="M72.0378 42H103.299V33.1705H87.3901V32.9318L91.2083 29.75C100.495 22.0142 102.862 17.9972 102.862 13.2841C102.862 5.6875 96.6372 0.715908 86.873 0.715908C77.3872 0.715908 71.2225 5.98579 71.2423 14.5568H81.7423C81.7225 11.1364 83.8105 9.22727 86.873 9.22727C89.9156 9.22727 92.0833 11.1165 92.0833 14.2386C92.0833 17.1222 90.2338 18.9915 87.231 21.4773L72.0378 34.0455V42Z" fill="#253987"/>
</svg>
